<svg width="1920" height="248" viewBox="0 0 1920 248" fill="none" xmlns="http://www.w3.org/2000/svg">
<path d="M529.213 116.05C529.763 115.912 530.45 115.637 530.862 115.362C531.275 115.5 531.687 115.637 532.1 115.775C531.412 116.325 530.313 117.15 529.213 117.425C529.213 117.012 529.213 116.462 529.213 116.05ZM493.325 106.287C494.013 106.15 494.562 105.875 495.25 105.6C496.075 106.15 497.038 106.425 498 106.7C498 107.387 498 108.075 498 109.037C496.213 108.625 494.425 107.25 493.325 106.287ZM501.575 106.837C502.95 106.562 504.188 106.012 505.15 105.187C505.425 105.325 505.837 105.462 506.112 105.462C506.112 105.6 503.5 108.625 501.3 109.037C501.3 108.35 501.438 107.525 501.575 106.837ZM524.125 115.362C524.263 115.362 524.537 115.225 524.675 115.087C525.225 115.637 526.05 115.912 526.875 116.05C527.013 116.462 527.013 117.012 527.15 117.562C525.775 117.287 524.125 115.362 524.125 115.362ZM1238.71 144.787C1238.99 144.65 1239.26 144.65 1239.4 144.512C1239.81 145.062 1240.36 145.612 1240.91 145.887C1241.46 146.162 1242.29 146.437 1242.97 146.437C1243.66 146.437 1244.21 146.3 1244.76 146.025C1244.9 146.987 1245.04 148.087 1245.04 149.187C1242.29 148.637 1239.68 145.75 1238.71 144.787ZM1249.99 147.4C1250.13 147.4 1250.26 147.537 1250.4 147.537C1252.6 147.95 1254.8 146.987 1255.07 145.337C1255.07 145.2 1255.07 144.925 1255.07 144.787C1256.17 145.2 1257.27 145.475 1258.51 145.612C1258.37 145.612 1253.98 149.05 1249.71 149.6C1249.85 148.637 1249.85 148.087 1249.99 147.4ZM1573.39 117.7C1574.35 117.562 1575.45 117.15 1576.27 116.6C1576.82 116.875 1577.51 117.15 1578.2 117.287C1577.1 118.25 1575.17 119.762 1573.25 120.175C1573.39 119.212 1573.39 118.387 1573.39 117.7ZM1564.86 116.325C1565.28 116.187 1565.55 116.05 1565.82 115.912C1566.79 116.737 1568.03 117.287 1569.54 117.562C1569.68 118.387 1569.81 119.212 1569.95 120.037C1567.61 119.625 1565 116.462 1564.86 116.325ZM1621.51 95.2873C1621.92 95.1498 1622.2 95.0123 1622.61 94.7373C1623.58 95.9748 1624.81 96.9373 1626.32 97.2123C1627.84 97.6248 1629.49 97.3498 1630.86 96.6623C1631.14 98.1748 1631.41 99.8248 1631.55 101.475C1627.29 100.787 1622.89 96.6623 1621.51 95.2873ZM1638.7 98.4498C1638.97 98.4498 1639.11 98.5873 1639.39 98.5873C1642.82 99.1373 1645.99 97.3498 1646.4 94.7373C1646.4 94.4623 1646.4 94.0498 1646.4 93.7748C1647.91 94.3248 1649.7 94.7373 1651.62 94.7373C1651.49 94.8748 1645.02 100.375 1638.56 101.475C1638.7 100.375 1638.7 99.4123 1638.7 98.4498ZM1696.04 116.875C1676.93 118.387 1657.81 120.45 1638.84 122.925C1638.15 118.25 1638.15 111.512 1638.43 105.737C1641.45 104.362 1647.22 101.337 1652.45 96.6623C1653.55 95.6998 1654.24 95.0123 1654.65 94.4623C1659.46 93.4998 1662.9 90.4748 1662.76 87.0373C1662.62 84.1498 1659.88 81.8123 1656.16 80.8498C1657.13 79.6123 1657.68 78.0998 1657.68 76.4498C1657.4 72.1873 1653.14 69.0248 1647.91 69.2998C1646.81 69.2998 1645.85 69.5748 1644.89 69.8498C1644.61 66.4123 1641.31 63.7998 1637.19 63.9373C1634.99 64.0748 1633.06 65.0373 1631.69 66.4123C1630.17 65.3123 1628.11 64.7623 1625.91 64.8998C1621.38 65.1748 1617.94 68.1998 1618.07 71.6373C1618.07 72.1873 1618.21 72.5998 1618.35 73.1498C1618.21 73.1498 1618.21 73.1498 1618.07 73.1498C1612.85 73.4248 1608.86 76.8623 1609.14 80.9873C1609.27 83.8748 1611.61 86.3498 1614.77 87.3123C1613.4 88.2748 1612.71 89.6498 1612.71 91.1623C1612.85 93.9123 1615.6 95.8373 1619.04 95.6998C1619.31 95.6998 1619.59 95.6998 1619.86 95.5623C1620 95.6998 1620.14 95.9748 1620.41 96.1123C1625.09 101.612 1630.73 104.912 1631.69 105.462C1631.96 112.337 1631.41 119.212 1630.86 123.75C1611.2 126.5 1592.64 129.525 1573.94 132.687C1573.52 129.937 1573.39 125.812 1573.25 122.237C1574.62 121.412 1577.24 119.762 1579.57 117.15C1579.85 117.15 1580.13 117.15 1580.54 117.15C1584.53 116.875 1587.55 113.85 1587.27 110.412C1587 107.112 1583.84 104.637 1580.12 104.775C1580.26 104.225 1580.26 103.675 1580.26 103.262C1579.99 100.237 1576.69 98.0373 1572.98 98.3123C1570.09 98.5873 1567.75 100.1 1566.79 102.162C1566.65 102.162 1566.38 102.162 1566.24 102.162C1563.9 102.3 1562.11 103.95 1562.25 105.737C1562.25 106.012 1562.39 106.287 1562.39 106.562H1562.25C1558.54 106.837 1555.65 109.312 1555.93 112.062C1556.2 114.812 1559.36 116.875 1563.07 116.6C1563.35 116.6 1563.76 116.462 1564.04 116.462C1564.18 116.6 1564.31 116.875 1564.59 117.15C1566.92 120.312 1569.67 122.1 1570.09 122.375C1570.36 126.637 1570.22 130.9 1570.09 133.375C1495.01 146.162 1415.26 161.012 1249.57 165.962C1248.75 163.35 1248.89 157.025 1249.44 151.937C1251.36 151.112 1255.35 149.325 1258.93 146.437C1259.61 145.887 1260.16 145.475 1260.44 145.062C1263.6 144.65 1265.94 142.725 1265.94 140.525C1265.94 138.6 1264.29 136.95 1261.81 136.262C1262.5 135.437 1262.91 134.475 1262.91 133.375C1262.91 130.625 1260.16 128.425 1256.72 128.425C1256.04 128.425 1255.35 128.562 1254.8 128.7C1254.8 126.362 1252.6 124.575 1249.99 124.575C1248.48 124.575 1247.24 125.125 1246.41 126.087C1245.45 125.4 1244.07 124.85 1242.7 124.85C1239.81 124.85 1237.34 126.775 1237.34 128.975C1237.34 129.25 1237.34 129.662 1237.47 129.937H1237.34C1233.9 129.937 1231.15 132.137 1231.15 134.75C1231.15 136.675 1232.52 138.325 1234.72 139.012C1233.76 139.562 1233.21 140.525 1233.21 141.487C1233.21 143.275 1235 144.65 1237.2 144.65C1237.34 144.65 1237.61 144.65 1237.75 144.65C1237.89 144.787 1237.89 144.925 1238.03 145.062C1240.91 148.775 1244.49 151.112 1245.18 151.525C1245.18 157.575 1244.07 163.625 1243.66 165.962C1219.87 166.65 1196.09 167.062 1172.44 167.2C851.925 170.087 888.775 150.287 542.825 125.95C538.425 125.675 534.025 125.4 529.763 125.125C529.35 123.612 529.35 120.862 529.35 118.525C530.175 118.112 531.688 117.012 533.062 115.5C533.2 115.5 533.475 115.5 533.612 115.5C535.95 115.362 537.737 113.575 537.6 111.512C537.462 109.587 535.538 108.075 533.338 108.212C533.475 107.937 533.475 107.662 533.475 107.25C533.337 105.462 531.413 104.087 529.075 104.362C527.425 104.5 525.913 105.462 525.5 106.7C525.362 106.7 525.225 106.7 525.225 106.7C523.85 106.837 522.75 107.8 522.888 108.9C522.888 109.037 522.888 109.175 523.025 109.312C520.825 109.45 519.175 110.962 519.312 112.612C519.45 114.262 521.375 115.5 523.438 115.225C523.575 115.225 523.85 115.225 523.987 115.087C524.95 116.462 526.188 117.7 527.562 118.662C527.7 121.137 527.7 123.612 527.562 125.125C518.762 124.575 510.1 124.025 501.438 123.612C501.3 122.1 500.887 116.462 501.3 111.1C501.712 110.825 504.325 109.037 506.662 106.012C506.8 105.737 507.075 105.6 507.213 105.325C507.488 105.325 507.762 105.462 508.175 105.462C511.75 105.737 514.775 103.812 514.912 101.2C515.05 98.5873 512.437 96.1123 508.862 95.8373C509 95.5623 509 95.4248 509 95.1498C509.138 93.3623 507.488 91.8498 505.15 91.7123C505.013 91.7123 504.875 91.7123 504.6 91.7123C503.775 89.7873 501.438 88.1373 498.688 87.9998C494.975 87.7248 491.95 89.7873 491.675 92.8123C491.675 93.3623 491.675 93.7748 491.812 94.3248C488.238 94.3248 485.213 96.6623 484.938 99.8248C484.662 103.125 487.55 106.012 491.4 106.287C491.675 106.287 491.95 106.287 492.362 106.287C494.562 108.762 497.037 110.412 498.412 111.237C498.412 116.05 498.137 121.825 497.175 123.475C176.8 107.662 -30 163.762 -30 163.762V208.862L1950 198.55V116.875C1950 116.875 1850.31 104.775 1696.04 116.875Z" fill="#CCE1DF"/>
<path d="M289.962 56.0998C289.687 56.0998 289.412 55.9623 289.275 55.8248C289.137 55.6873 289 55.4123 289 55.1373V47.7123C289 47.1623 288.588 46.7498 288.038 46.7498H279.788C279.513 46.7498 279.238 46.8873 279.1 47.0248C278.963 47.1623 278.825 47.4373 278.825 47.7123V50.3248C278.825 50.8748 278.412 51.2873 277.862 51.2873H274.425C274.15 51.2873 273.875 51.4248 273.737 51.5623C273.6 51.6998 273.462 51.9748 273.462 52.2498V117.012C273.462 117.562 273.875 117.975 274.425 117.975H295.737C296.012 117.975 296.287 117.837 296.425 117.7C296.562 117.562 296.7 117.287 296.7 117.012V57.1998C296.7 56.6498 296.287 56.2373 295.737 56.2373H289.962V56.0998ZM267.688 47.5748C267.688 47.0248 267.275 46.6123 266.587 46.6123H245.275C245 46.6123 244.725 46.7498 244.587 46.8873C244.45 47.0248 244.312 47.2998 244.312 47.5748V117.012C244.312 117.562 244.725 117.975 245.413 117.975H266.725C267 117.975 267.275 117.837 267.413 117.7C267.55 117.562 267.688 117.287 267.688 117.012V47.5748Z" fill="#006A66"/>
<path d="M324.062 35.3373C324.062 35.0623 323.925 34.7873 323.787 34.6498C323.65 34.5123 323.375 34.3748 323.1 34.3748H288.175C287.9 34.3748 287.625 34.5123 287.487 34.6498C287.35 34.7873 287.212 35.0623 287.212 35.3373V118.525C287.212 119.075 287.625 119.625 288.312 119.625H323.237C323.512 119.625 323.787 119.487 323.925 119.35C324.062 119.212 324.2 118.937 324.2 118.662V35.3373H324.062ZM210.212 13.8873C209.937 13.8873 209.662 13.7498 209.525 13.6123C209.387 13.4748 209.25 13.1998 209.25 12.9248V11.8248C209.25 11.5498 209.113 11.2748 208.975 11.1373C208.838 10.9998 208.563 10.8623 208.288 10.8623H171.163C170.888 10.8623 170.613 10.9998 170.475 11.1373C170.338 11.2748 170.2 11.5498 170.2 11.8248V12.7873C170.2 13.0623 170.062 13.3373 169.925 13.4748C169.787 13.6123 169.512 13.7498 169.237 13.7498H167.587C167.312 13.7498 167.037 13.8873 166.9 14.0248C166.762 14.1623 166.625 14.4373 166.625 14.7123V116.875C166.625 117.425 167.037 117.837 167.587 117.837H212.275C212.55 117.837 212.825 117.7 212.962 117.562C213.1 117.425 213.237 117.15 213.237 116.875V14.9873C213.237 14.7123 213.1 14.4373 212.962 14.2998C212.825 14.1623 212.55 14.0248 212.275 14.0248H210.212V13.8873ZM390.475 64.4873C391.025 64.4873 391.85 64.7623 392.263 65.1748L397.35 70.3998C397.762 70.8123 398.037 71.6373 398.037 72.1873V118.525C398.037 119.075 397.625 119.487 397.075 119.487H374.388C374.113 119.487 373.838 119.35 373.7 119.212C373.563 119.075 373.425 118.8 373.425 118.525V65.4498C373.425 64.8998 373.838 64.4873 374.388 64.4873H390.475ZM354.312 33.1373C354.037 32.9998 353.762 32.8623 353.487 32.8623C353.212 32.8623 352.937 32.9998 352.662 33.1373L339.737 45.0998C339.325 45.5123 338.912 46.3373 338.912 46.8873V118.525C338.912 118.8 339.05 119.075 339.188 119.212C339.325 119.35 339.6 119.487 339.875 119.487H366.55C366.825 119.487 367.1 119.35 367.237 119.212C367.375 119.075 367.513 118.8 367.513 118.525V46.8873C367.513 46.3373 367.1 45.5123 366.688 45.0998L354.312 33.1373Z" fill="#006A66"/>
<path d="M355.548 63.5248C355.548 64.0748 354.998 64.4873 354.173 64.4873H352.798C352.111 64.4873 351.423 64.0748 351.423 63.5248V60.0873C351.423 59.5373 351.973 59.1248 352.798 59.1248H354.173C354.861 59.1248 355.548 59.5373 355.548 60.0873V63.5248ZM204.023 32.8623C203.611 32.8623 203.198 32.1748 203.198 31.4873V30.1123C203.198 29.2873 203.611 28.7373 204.023 28.7373H206.498C206.911 28.7373 207.323 29.4248 207.323 30.1123V31.4873C207.323 32.3123 206.911 32.8623 206.498 32.8623H204.023ZM204.023 65.8623C203.611 65.8623 203.198 65.1748 203.198 64.4873V63.1123C203.198 62.2873 203.611 61.7373 204.023 61.7373H206.498C206.911 61.7373 207.323 62.4248 207.323 63.1123V64.4873C207.323 65.3123 206.911 65.8623 206.498 65.8623H204.023ZM204.023 57.6123C203.611 57.6123 203.198 56.9248 203.198 56.2373V54.8623C203.198 54.0373 203.611 53.4873 204.023 53.4873H206.498C206.911 53.4873 207.323 54.1748 207.323 54.8623V56.2373C207.323 57.0623 206.911 57.6123 206.498 57.6123H204.023ZM204.023 41.1123C203.611 41.1123 203.198 40.4248 203.198 39.7373V38.3623C203.198 37.5373 203.611 36.9873 204.023 36.9873H206.498C206.911 36.9873 207.323 37.6748 207.323 38.3623V39.7373C207.323 40.5623 206.911 41.1123 206.498 41.1123H204.023ZM204.023 49.3623C203.611 49.3623 203.198 48.6748 203.198 47.9873V46.6123C203.198 45.7873 203.611 45.2373 204.023 45.2373H206.498C206.911 45.2373 207.323 45.9248 207.323 46.6123V47.9873C207.323 48.8123 206.911 49.3623 206.498 49.3623H204.023ZM193.023 32.8623C192.611 32.8623 192.198 32.1748 192.198 31.4873V30.1123C192.198 29.2873 192.611 28.7373 193.023 28.7373H195.498C195.911 28.7373 196.323 29.4248 196.323 30.1123V31.4873C196.323 32.3123 195.911 32.8623 195.498 32.8623H193.023ZM193.023 65.8623C192.611 65.8623 192.198 65.1748 192.198 64.4873V63.1123C192.198 62.2873 192.611 61.7373 193.023 61.7373H195.498C195.911 61.7373 196.323 62.4248 196.323 63.1123V64.4873C196.323 65.3123 195.911 65.8623 195.498 65.8623H193.023ZM193.023 57.6123C192.611 57.6123 192.198 56.9248 192.198 56.2373V54.8623C192.198 54.0373 192.611 53.4873 193.023 53.4873H195.498C195.911 53.4873 196.323 54.1748 196.323 54.8623V56.2373C196.323 57.0623 195.911 57.6123 195.498 57.6123H193.023ZM193.023 41.1123C192.611 41.1123 192.198 40.4248 192.198 39.7373V38.3623C192.198 37.5373 192.611 36.9873 193.023 36.9873H195.498C195.911 36.9873 196.323 37.6748 196.323 38.3623V39.7373C196.323 40.5623 195.911 41.1123 195.498 41.1123H193.023ZM193.023 49.3623C192.611 49.3623 192.198 48.6748 192.198 47.9873V46.6123C192.198 45.7873 192.611 45.2373 193.023 45.2373H195.498C195.911 45.2373 196.323 45.9248 196.323 46.6123V47.9873C196.323 48.8123 195.911 49.3623 195.498 49.3623H193.023ZM183.536 32.8623C183.123 32.8623 182.711 32.1748 182.711 31.4873V30.1123C182.711 29.2873 183.123 28.7373 183.536 28.7373H186.011C186.423 28.7373 186.836 29.4248 186.836 30.1123V31.4873C186.836 32.3123 186.423 32.8623 186.011 32.8623H183.536ZM183.536 65.8623C183.123 65.8623 182.711 65.1748 182.711 64.4873V63.1123C182.711 62.2873 183.123 61.7373 183.536 61.7373H186.011C186.423 61.7373 186.836 62.4248 186.836 63.1123V64.4873C186.836 65.3123 186.423 65.8623 186.011 65.8623H183.536ZM183.536 57.6123C183.123 57.6123 182.711 56.9248 182.711 56.2373V54.8623C182.711 54.0373 183.123 53.4873 183.536 53.4873H186.011C186.423 53.4873 186.836 54.1748 186.836 54.8623V56.2373C186.836 57.0623 186.423 57.6123 186.011 57.6123H183.536ZM183.536 41.1123C183.123 41.1123 182.711 40.4248 182.711 39.7373V38.3623C182.711 37.5373 183.123 36.9873 183.536 36.9873H186.011C186.423 36.9873 186.836 37.6748 186.836 38.3623V39.7373C186.836 40.5623 186.423 41.1123 186.011 41.1123H183.536ZM183.536 49.3623C183.123 49.3623 182.711 48.6748 182.711 47.9873V46.6123C182.711 45.7873 183.123 45.2373 183.536 45.2373H186.011C186.423 45.2373 186.836 45.9248 186.836 46.6123V47.9873C186.836 48.8123 186.423 49.3623 186.011 49.3623H183.536ZM173.911 32.8623C173.498 32.8623 173.086 32.1748 173.086 31.4873V30.1123C173.086 29.2873 173.498 28.7373 173.911 28.7373H176.386C176.798 28.7373 177.211 29.4248 177.211 30.1123V31.4873C177.211 32.3123 176.798 32.8623 176.386 32.8623H173.911ZM173.911 65.8623C173.498 65.8623 173.086 65.1748 173.086 64.4873V63.1123C173.086 62.2873 173.498 61.7373 173.911 61.7373H176.386C176.798 61.7373 177.211 62.4248 177.211 63.1123V64.4873C177.211 65.3123 176.798 65.8623 176.386 65.8623H173.911ZM173.911 57.6123C173.498 57.6123 173.086 56.9248 173.086 56.2373V54.8623C173.086 54.0373 173.498 53.4873 173.911 53.4873H176.386C176.798 53.4873 177.211 54.1748 177.211 54.8623V56.2373C177.211 57.0623 176.798 57.6123 176.386 57.6123H173.911ZM173.911 41.1123C173.498 41.1123 173.086 40.4248 173.086 39.7373V38.3623C173.086 37.5373 173.498 36.9873 173.911 36.9873H176.386C176.798 36.9873 177.211 37.6748 177.211 38.3623V39.7373C177.211 40.5623 176.798 41.1123 176.386 41.1123H173.911ZM173.911 49.3623C173.498 49.3623 173.086 48.6748 173.086 47.9873V46.6123C173.086 45.7873 173.498 45.2373 173.911 45.2373H176.386C176.798 45.2373 177.211 45.9248 177.211 46.6123V47.9873C177.211 48.8123 176.798 49.3623 176.386 49.3623H173.911ZM204.023 98.8623C203.611 98.8623 203.198 98.1748 203.198 97.4873V96.1123C203.198 95.2873 203.611 94.7373 204.023 94.7373H206.498C206.911 94.7373 207.323 95.4248 207.323 96.1123V97.4873C207.323 98.3123 206.911 98.8623 206.498 98.8623H204.023ZM204.023 90.6123C203.611 90.6123 203.198 89.9248 203.198 89.2373V87.8623C203.198 87.0373 203.611 86.4873 204.023 86.4873H206.498C206.911 86.4873 207.323 87.1748 207.323 87.8623V89.2373C207.323 90.0623 206.911 90.6123 206.498 90.6123H204.023ZM204.023 74.1123C203.611 74.1123 203.198 73.4248 203.198 72.7373V71.3623C203.198 70.5373 203.611 69.9873 204.023 69.9873H206.498C206.911 69.9873 207.323 70.6748 207.323 71.3623V72.7373C207.323 73.5623 206.911 74.1123 206.498 74.1123H204.023ZM204.023 82.3623C203.611 82.3623 203.198 81.6748 203.198 80.9873V79.6123C203.198 78.7873 203.611 78.2373 204.023 78.2373H206.498C206.911 78.2373 207.323 78.9248 207.323 79.6123V80.9873C207.323 81.8123 206.911 82.3623 206.498 82.3623H204.023ZM193.023 98.8623C192.611 98.8623 192.198 98.1748 192.198 97.4873V96.1123C192.198 95.2873 192.611 94.7373 193.023 94.7373H195.498C195.911 94.7373 196.323 95.4248 196.323 96.1123V97.4873C196.323 98.3123 195.911 98.8623 195.498 98.8623H193.023ZM193.023 90.6123C192.611 90.6123 192.198 89.9248 192.198 89.2373V87.8623C192.198 87.0373 192.611 86.4873 193.023 86.4873H195.498C195.911 86.4873 196.323 87.1748 196.323 87.8623V89.2373C196.323 90.0623 195.911 90.6123 195.498 90.6123H193.023ZM193.023 74.1123C192.611 74.1123 192.198 73.4248 192.198 72.7373V71.3623C192.198 70.5373 192.611 69.9873 193.023 69.9873H195.498C195.911 69.9873 196.323 70.6748 196.323 71.3623V72.7373C196.323 73.5623 195.911 74.1123 195.498 74.1123H193.023ZM193.023 82.3623C192.611 82.3623 192.198 81.6748 192.198 80.9873V79.6123C192.198 78.7873 192.611 78.2373 193.023 78.2373H195.498C195.911 78.2373 196.323 78.9248 196.323 79.6123V80.9873C196.323 81.8123 195.911 82.3623 195.498 82.3623H193.023ZM183.536 98.8623C183.123 98.8623 182.711 98.1748 182.711 97.4873V96.1123C182.711 95.2873 183.123 94.7373 183.536 94.7373H186.011C186.423 94.7373 186.836 95.4248 186.836 96.1123V97.4873C186.836 98.3123 186.423 98.8623 186.011 98.8623H183.536ZM183.536 90.6123C183.123 90.6123 182.711 89.9248 182.711 89.2373V87.8623C182.711 87.0373 183.123 86.4873 183.536 86.4873H186.011C186.423 86.4873 186.836 87.1748 186.836 87.8623V89.2373C186.836 90.0623 186.423 90.6123 186.011 90.6123H183.536ZM183.536 74.1123C183.123 74.1123 182.711 73.4248 182.711 72.7373V71.3623C182.711 70.5373 183.123 69.9873 183.536 69.9873H186.011C186.423 69.9873 186.836 70.6748 186.836 71.3623V72.7373C186.836 73.5623 186.423 74.1123 186.011 74.1123H183.536ZM183.536 82.3623C183.123 82.3623 182.711 81.6748 182.711 80.9873V79.6123C182.711 78.7873 183.123 78.2373 183.536 78.2373H186.011C186.423 78.2373 186.836 78.9248 186.836 79.6123V80.9873C186.836 81.8123 186.423 82.3623 186.011 82.3623H183.536ZM173.911 98.8623C173.498 98.8623 173.086 98.1748 173.086 97.4873V96.1123C173.086 95.2873 173.498 94.7373 173.911 94.7373H176.386C176.798 94.7373 177.211 95.4248 177.211 96.1123V97.4873C177.211 98.3123 176.798 98.8623 176.386 98.8623H173.911ZM173.911 90.6123C173.498 90.6123 173.086 89.9248 173.086 89.2373V87.8623C173.086 87.0373 173.498 86.4873 173.911 86.4873H176.386C176.798 86.4873 177.211 87.1748 177.211 87.8623V89.2373C177.211 90.0623 176.798 90.6123 176.386 90.6123H173.911ZM173.911 74.1123C173.498 74.1123 173.086 73.4248 173.086 72.7373V71.3623C173.086 70.5373 173.498 69.9873 173.911 69.9873H176.386C176.798 69.9873 177.211 70.6748 177.211 71.3623V72.7373C177.211 73.5623 176.798 74.1123 176.386 74.1123H173.911ZM173.911 82.3623C173.498 82.3623 173.086 81.6748 173.086 80.9873V79.6123C173.086 78.7873 173.498 78.2373 173.911 78.2373H176.386C176.798 78.2373 177.211 78.9248 177.211 79.6123V80.9873C177.211 81.8123 176.798 82.3623 176.386 82.3623H173.911ZM355.548 73.1498C355.548 73.6998 354.998 74.1123 354.173 74.1123H352.798C352.111 74.1123 351.423 73.6998 351.423 73.1498V69.7123C351.423 69.1623 351.973 68.7498 352.798 68.7498H354.173C354.861 68.7498 355.548 69.1623 355.548 69.7123V73.1498ZM355.548 84.1498C355.548 84.6998 354.998 85.1123 354.173 85.1123H352.798C352.111 85.1123 351.423 84.6998 351.423 84.1498V80.7123C351.423 80.1623 351.973 79.7498 352.798 79.7498H354.173C354.861 79.7498 355.548 80.1623 355.548 80.7123V84.1498ZM259.573 60.7748C259.573 61.3248 259.161 61.7373 258.611 61.7373H256.548C256.273 61.7373 255.998 61.5998 255.861 61.4623C255.723 61.3248 255.586 61.0498 255.586 60.7748V57.1998C255.586 56.6498 255.998 56.2373 256.548 56.2373H258.611C259.161 56.2373 259.573 56.6498 259.573 57.1998V60.7748ZM259.573 73.1498C259.573 73.6998 259.161 74.1123 258.611 74.1123H256.548C256.273 74.1123 255.998 73.9748 255.861 73.8373C255.723 73.6998 255.586 73.4248 255.586 73.1498V69.5748C255.586 69.0248 255.998 68.6123 256.548 68.6123H258.611C259.161 68.6123 259.573 69.0248 259.573 69.5748V73.1498ZM259.573 82.7748C259.573 83.3248 259.161 83.7373 258.611 83.7373H256.548C256.273 83.7373 255.998 83.5998 255.861 83.4623C255.723 83.3248 255.586 83.0498 255.586 82.7748V79.1998C255.586 78.6498 255.998 78.2373 256.548 78.2373H258.611C259.161 78.2373 259.573 78.6498 259.573 79.1998V82.7748ZM387.173 89.6498C387.173 90.1998 387.586 90.6123 388.273 90.6123H390.198C390.748 90.6123 391.298 90.1998 391.298 89.6498V87.5873C391.298 87.0373 390.886 86.6248 390.198 86.6248H388.273C387.723 86.6248 387.173 87.0373 387.173 87.5873V89.6498ZM387.173 81.3998C387.173 81.9498 387.586 82.3623 388.273 82.3623H390.198C390.748 82.3623 391.298 81.9498 391.298 81.3998V79.3373C391.298 78.7873 390.886 78.3748 390.198 78.3748H388.273C387.723 78.3748 387.173 78.7873 387.173 79.3373V81.3998ZM387.173 96.5248C387.173 97.0748 387.586 97.4873 388.273 97.4873H390.198C390.748 97.4873 391.298 97.0748 391.298 96.5248V94.4623C391.298 93.9123 390.886 93.4998 390.198 93.4998H388.273C387.723 93.4998 387.173 93.9123 387.173 94.4623V96.5248ZM378.923 89.6498C378.923 90.1998 379.336 90.6123 380.023 90.6123H381.948C382.498 90.6123 383.048 90.1998 383.048 89.6498V87.5873C383.048 87.0373 382.636 86.6248 381.948 86.6248H380.023C379.473 86.6248 378.923 87.0373 378.923 87.5873V89.6498ZM378.923 81.3998C378.923 81.9498 379.336 82.3623 380.023 82.3623H381.948C382.498 82.3623 383.048 81.9498 383.048 81.3998V79.3373C383.048 78.7873 382.636 78.3748 381.948 78.3748H380.023C379.473 78.3748 378.923 78.7873 378.923 79.3373V81.3998ZM378.923 96.5248C378.923 97.0748 379.336 97.4873 380.023 97.4873H381.948C382.498 97.4873 383.048 97.0748 383.048 96.5248V94.4623C383.048 93.9123 382.636 93.4998 381.948 93.4998H380.023C379.473 93.4998 378.923 93.9123 378.923 94.4623V96.5248ZM387.173 106.15C387.173 106.7 387.586 107.112 388.273 107.112H390.198C390.748 107.112 391.298 106.7 391.298 106.15V104.087C391.298 103.537 390.886 103.125 390.198 103.125H388.273C387.723 103.125 387.173 103.537 387.173 104.087V106.15ZM378.923 106.15C378.923 106.7 379.336 107.112 380.023 107.112H381.948C382.498 107.112 383.048 106.7 383.048 106.15V104.087C383.048 103.537 382.636 103.125 381.948 103.125H380.023C379.473 103.125 378.923 103.537 378.923 104.087V106.15Z" fill="white"/>
<path d="M246.098 21.8625C245.823 21.8625 245.548 21.725 245.411 21.5875C245.273 21.45 245.136 21.175 245.136 20.9V19.3875C245.136 19.1125 244.998 18.8375 244.861 18.7C244.723 18.5625 244.448 18.425 244.173 18.425H243.348C243.073 18.425 242.798 18.2875 242.661 18.15C242.523 18.0125 242.386 17.7375 242.386 17.4625V16.0875C242.386 15.8125 242.248 15.5375 242.111 15.4C241.973 15.2625 241.698 15.125 241.423 15.125H235.648C235.098 15.125 234.548 14.7125 234.548 14.1625C234.548 13.6125 234.411 13.2 234.411 13.2C234.411 13.2 234.273 12.7875 234.273 12.1V1.1C234.273 0.55 234.136 0 233.861 0C233.586 0 233.448 0.4125 233.448 1.1V12.1C233.448 12.65 233.311 13.2 233.311 13.2C233.173 13.2 233.173 13.6125 233.173 14.1625C233.173 14.7125 232.761 15.125 232.073 15.125H226.298C226.023 15.125 225.748 15.2625 225.611 15.4C225.473 15.5375 225.336 15.8125 225.336 16.0875V17.4625C225.336 17.7375 225.198 18.0125 225.061 18.15C224.923 18.2875 224.648 18.425 224.373 18.425H222.998C222.723 18.425 222.448 18.5625 222.311 18.7C222.173 18.8375 222.036 19.1125 222.036 19.3875V20.9C222.036 21.175 221.898 21.45 221.761 21.5875C221.623 21.725 221.348 21.8625 221.073 21.8625C220.798 21.8625 220.523 22 220.386 22.1375C220.248 22.275 220.111 22.55 220.111 22.825V118.387C220.111 118.937 220.523 119.488 221.211 119.488H246.511C247.061 119.488 247.611 119.075 247.611 118.387V22.825C247.611 22.55 247.473 22.275 247.336 22.1375C246.648 21.8625 246.373 21.8625 246.098 21.8625ZM130.461 71.0875C130.461 71.0875 130.186 70.675 129.773 70.2625L120.836 59.4C120.423 58.9875 119.873 58.9875 119.461 59.4L110.523 70.2625C110.111 70.675 109.836 71.0875 109.836 71.0875C109.836 71.0875 109.836 71.5 109.836 72.1875V118.525C109.836 119.075 110.248 119.625 110.798 119.625H129.498C129.773 119.625 130.048 119.488 130.186 119.35C130.323 119.213 130.461 118.938 130.461 118.663V72.05C130.598 71.5 130.461 71.0875 130.461 71.0875ZM138.436 53.2125C137.886 53.35 137.473 54.0375 137.473 54.5875V117.15C137.473 117.7 137.886 118.113 138.573 118.113H169.373C169.648 118.113 169.923 117.975 170.061 117.838C170.198 117.7 170.336 117.425 170.336 117.15V44.6875C170.336 44.1375 169.923 43.8625 169.373 44L138.436 53.2125Z" fill="#006A66"/>
<path d="M236.198 37.2623C236.198 37.8123 235.648 38.3623 234.961 38.3623H234.823C234.136 38.3623 233.586 37.8123 233.586 37.2623V35.3373C233.586 34.7873 234.136 34.2373 234.823 34.2373H234.961C235.648 34.2373 236.198 34.7873 236.198 35.3373V37.2623ZM236.198 45.5123C236.198 46.0623 235.648 46.6123 234.961 46.6123H234.823C234.136 46.6123 233.586 46.0623 233.586 45.5123V43.5873C233.586 43.0373 234.136 42.4873 234.823 42.4873H234.961C235.648 42.4873 236.198 43.0373 236.198 43.5873V45.5123ZM236.198 52.3873C236.198 52.9373 235.648 53.4873 234.961 53.4873H234.823C234.136 53.4873 233.586 52.9373 233.586 52.3873V50.4623C233.586 49.9123 234.136 49.3623 234.823 49.3623H234.961C235.648 49.3623 236.198 49.9123 236.198 50.4623V52.3873ZM236.198 59.2623C236.198 59.8123 235.648 60.3623 234.961 60.3623H234.823C234.136 60.3623 233.586 59.8123 233.586 59.2623V57.3373C233.586 56.7873 234.136 56.2373 234.823 56.2373H234.961C235.648 56.2373 236.198 56.7873 236.198 57.3373V59.2623ZM284.186 67.5123C284.186 68.0623 283.636 68.6123 282.811 68.6123H281.298C280.611 68.6123 279.923 68.0623 279.923 67.5123V65.5873C279.923 65.0373 280.473 64.4873 281.298 64.4873H282.811C283.498 64.4873 284.186 65.0373 284.186 65.5873V67.5123ZM284.186 75.7623C284.186 76.3123 283.636 76.8623 282.811 76.8623H281.298C280.611 76.8623 279.923 76.3123 279.923 75.7623V73.8373C279.923 73.2873 280.473 72.7373 281.298 72.7373H282.811C283.498 72.7373 284.186 73.2873 284.186 73.8373V75.7623ZM289.686 67.5123C289.686 68.0623 289.136 68.6123 288.311 68.6123H286.798C286.111 68.6123 285.423 68.0623 285.423 67.5123V65.5873C285.423 65.0373 285.973 64.4873 286.798 64.4873H288.311C288.998 64.4873 289.686 65.0373 289.686 65.5873V67.5123ZM289.686 75.7623C289.686 76.3123 289.136 76.8623 288.311 76.8623H286.798C286.111 76.8623 285.423 76.3123 285.423 75.7623V73.8373C285.423 73.2873 285.973 72.7373 286.798 72.7373H288.311C288.998 72.7373 289.686 73.2873 289.686 73.8373V75.7623ZM284.186 82.6373C284.186 83.1873 283.636 83.7373 282.811 83.7373H281.298C280.611 83.7373 279.923 83.1873 279.923 82.6373V80.7123C279.923 80.1623 280.473 79.6123 281.298 79.6123H282.811C283.498 79.6123 284.186 80.1623 284.186 80.7123V82.6373ZM289.686 82.6373C289.686 83.1873 289.136 83.7373 288.311 83.7373H286.798C286.111 83.7373 285.423 83.1873 285.423 82.6373V80.7123C285.423 80.1623 285.973 79.6123 286.798 79.6123H288.311C288.998 79.6123 289.686 80.1623 289.686 80.7123V82.6373ZM284.186 89.5123C284.186 90.0623 283.636 90.6123 282.811 90.6123H281.298C280.611 90.6123 279.923 90.0623 279.923 89.5123V87.5873C279.923 87.0373 280.473 86.4873 281.298 86.4873H282.811C283.498 86.4873 284.186 87.0373 284.186 87.5873V89.5123ZM289.686 89.5123C289.686 90.0623 289.136 90.6123 288.311 90.6123H286.798C286.111 90.6123 285.423 90.0623 285.423 89.5123V87.5873C285.423 87.0373 285.973 86.4873 286.798 86.4873H288.311C288.998 86.4873 289.686 87.0373 289.686 87.5873V89.5123ZM284.186 97.7623C284.186 98.3123 283.636 98.8623 282.811 98.8623H281.298C280.611 98.8623 279.923 98.3123 279.923 97.7623V95.8373C279.923 95.2873 280.473 94.7373 281.298 94.7373H282.811C283.498 94.7373 284.186 95.2873 284.186 95.8373V97.7623ZM289.686 97.7623C289.686 98.3123 289.136 98.8623 288.311 98.8623H286.798C286.111 98.8623 285.423 98.3123 285.423 97.7623V95.8373C285.423 95.2873 285.973 94.7373 286.798 94.7373H288.311C288.998 94.7373 289.686 95.2873 289.686 95.8373V97.7623Z" fill="white"/>
<path d="M329.564 66.4127C329.289 66.4127 329.014 66.2752 328.877 66.1377C328.739 66.0002 328.602 65.7252 328.602 65.4502V61.4627C328.602 61.1877 328.464 60.9127 328.327 60.7752C328.189 60.6377 327.914 60.5002 327.639 60.5002H324.614C324.339 60.5002 324.064 60.3627 323.927 60.2252C323.789 60.0877 323.652 59.8127 323.652 59.5377V57.4752C323.652 57.2002 323.514 56.9252 323.377 56.7877C323.239 56.6502 322.964 56.5127 322.689 56.5127H314.714C314.439 56.5127 314.164 56.6502 314.027 56.7877C313.889 56.9252 313.752 57.2002 313.752 57.4752V59.5377C313.752 60.0877 313.339 60.6377 312.789 60.6377H309.764C309.489 60.6377 309.214 60.7752 309.077 60.9127C308.939 61.0502 308.802 61.3252 308.802 61.6002V65.5877C308.802 66.1377 308.389 66.6877 307.839 66.6877H304.814C304.539 66.6877 304.264 66.8252 304.127 66.9627C303.989 67.1002 303.852 67.3752 303.852 67.6502V118.663C303.852 119.213 304.264 119.763 304.814 119.763H333.002C333.552 119.763 333.964 119.35 333.964 118.663V67.5127C333.964 67.2377 333.827 66.9627 333.689 66.8252C333.552 66.6877 333.277 66.5502 333.002 66.5502H329.564V66.4127Z" fill="#006A66"/>
<path d="M127.847 80.0246C127.847 80.5746 127.159 80.9871 126.472 80.9871H125.234C124.409 80.9871 123.859 80.5746 123.859 80.0246V77.6871C123.859 77.1371 124.547 76.7246 125.234 76.7246H126.472C127.297 76.7246 127.847 77.1371 127.847 77.6871V80.0246ZM120.972 80.0246C120.972 80.5746 120.284 80.9871 119.597 80.9871H118.359C117.534 80.9871 116.984 80.5746 116.984 80.0246V77.6871C116.984 77.1371 117.672 76.7246 118.359 76.7246H119.597C120.422 76.7246 120.972 77.1371 120.972 77.6871V80.0246ZM127.847 88.2746C127.847 88.8246 127.159 89.2371 126.472 89.2371H125.234C124.409 89.2371 123.859 88.8246 123.859 88.2746V85.9371C123.859 85.3871 124.547 84.9746 125.234 84.9746H126.472C127.297 84.9746 127.847 85.3871 127.847 85.9371V88.2746ZM120.972 88.2746C120.972 88.8246 120.284 89.2371 119.597 89.2371H118.359C117.534 89.2371 116.984 88.8246 116.984 88.2746V85.9371C116.984 85.3871 117.672 84.9746 118.359 84.9746H119.597C120.422 84.9746 120.972 85.3871 120.972 85.9371V88.2746ZM127.847 97.8996C127.847 98.4496 127.159 98.8621 126.472 98.8621H125.234C124.409 98.8621 123.859 98.4496 123.859 97.8996V95.5621C123.859 95.0121 124.547 94.5996 125.234 94.5996H126.472C127.297 94.5996 127.847 95.0121 127.847 95.5621V97.8996ZM120.972 97.8996C120.972 98.4496 120.284 98.8621 119.597 98.8621H118.359C117.534 98.8621 116.984 98.4496 116.984 97.8996V95.5621C116.984 95.0121 117.672 94.5996 118.359 94.5996H119.597C120.422 94.5996 120.972 95.0121 120.972 95.5621V97.8996ZM127.847 107.525C127.847 108.075 127.159 108.487 126.472 108.487H125.234C124.409 108.487 123.859 108.075 123.859 107.525V105.187C123.859 104.637 124.547 104.225 125.234 104.225H126.472C127.297 104.225 127.847 104.637 127.847 105.187V107.525ZM120.972 107.525C120.972 108.075 120.284 108.487 119.597 108.487H118.359C117.534 108.487 116.984 108.075 116.984 107.525V105.187C116.984 104.637 117.672 104.225 118.359 104.225H119.597C120.422 104.225 120.972 104.637 120.972 105.187V107.525Z" fill="white"/>
<path d="M1698.79 120.45C1698.79 120.45 1698.38 120.037 1698.1 119.625L1685.18 104.775C1685.04 104.637 1685.04 104.637 1684.9 104.5C1684.76 104.5 1684.63 104.362 1684.49 104.362C1684.35 104.362 1684.21 104.362 1684.07 104.5C1683.94 104.5 1683.8 104.637 1683.8 104.775L1670.88 119.625C1670.46 120.037 1670.19 120.45 1670.19 120.45C1670.19 120.45 1670.19 120.862 1670.19 121.412V183.012C1670.19 183.562 1670.6 183.975 1671.29 183.975H1697.96C1698.51 183.975 1699.06 183.562 1699.06 183.012V121.412C1698.92 120.862 1698.93 120.45 1698.79 120.45Z" fill="#006A66"/>
<path d="M1687.93 136.4C1687.93 136.95 1687.51 137.363 1686.83 137.363H1684.76C1684.21 137.363 1683.66 136.95 1683.66 136.4V132.963C1683.66 132.413 1684.08 132 1684.76 132H1686.83C1687.38 132 1687.93 132.413 1687.93 132.963V136.4ZM1679.68 136.4C1679.68 136.95 1679.26 137.363 1678.58 137.363H1676.51C1675.96 137.363 1675.41 136.95 1675.41 136.4V132.963C1675.41 132.413 1675.83 132 1676.51 132H1678.58C1679.13 132 1679.68 132.413 1679.68 132.963V136.4ZM1687.93 126.775C1687.93 127.325 1687.51 127.738 1686.83 127.738H1684.76C1684.21 127.738 1683.66 127.325 1683.66 126.775V123.338C1683.66 122.788 1684.08 122.375 1684.76 122.375H1686.83C1687.38 122.375 1687.93 122.788 1687.93 123.338V126.775ZM1679.68 126.775C1679.68 127.325 1679.26 127.738 1678.58 127.738H1676.51C1675.96 127.738 1675.41 127.325 1675.41 126.775V123.338C1675.41 122.788 1675.83 122.375 1676.51 122.375H1678.58C1679.13 122.375 1679.68 122.788 1679.68 123.338V126.775Z" fill="white"/>
<path d="M1731.79 120.45C1731.79 120.45 1731.38 120.037 1731.1 119.625L1718.18 104.775C1718.04 104.637 1718.04 104.637 1717.9 104.5C1717.76 104.5 1717.63 104.362 1717.49 104.362C1717.35 104.362 1717.21 104.362 1717.07 104.5C1716.94 104.5 1716.8 104.637 1716.8 104.775L1703.88 119.625C1703.46 120.037 1703.19 120.45 1703.19 120.45C1703.19 120.45 1703.19 120.862 1703.19 121.412V183.012C1703.19 183.562 1703.6 183.975 1704.29 183.975H1730.96C1731.51 183.975 1732.06 183.562 1732.06 183.012V121.412C1731.79 120.862 1731.79 120.45 1731.79 120.45Z" fill="#006A66"/>
<path d="M1723.54 136.4C1723.54 136.95 1723.13 137.363 1722.44 137.363H1720.38C1719.83 137.363 1719.28 136.95 1719.28 136.4V132.963C1719.28 132.413 1719.69 132 1720.38 132H1722.44C1722.99 132 1723.54 132.413 1723.54 132.963V136.4ZM1715.43 136.4C1715.43 136.95 1715.01 137.363 1714.33 137.363H1712.26C1711.71 137.363 1711.16 136.95 1711.16 136.4V132.963C1711.16 132.413 1711.58 132 1712.26 132H1714.33C1714.88 132 1715.43 132.413 1715.43 132.963V136.4ZM1723.54 126.775C1723.54 127.325 1723.13 127.738 1722.44 127.738H1720.38C1719.83 127.738 1719.28 127.325 1719.28 126.775V123.338C1719.28 122.788 1719.69 122.375 1720.38 122.375H1722.44C1722.99 122.375 1723.54 122.788 1723.54 123.338V126.775ZM1715.43 126.775C1715.43 127.325 1715.01 127.738 1714.33 127.738H1712.26C1711.71 127.738 1711.16 127.325 1711.16 126.775V123.338C1711.16 122.788 1711.58 122.375 1712.26 122.375H1714.33C1714.88 122.375 1715.43 122.788 1715.43 123.338V126.775Z" fill="white"/>
<path d="M1831.2 123.346C1832.57 123.07 1833.81 122.519 1834.91 121.829C1835.74 122.243 1836.56 122.519 1837.39 122.656C1835.87 124.035 1833.54 125.828 1831.06 126.38C1831.06 125.414 1831.06 124.311 1831.2 123.346ZM1415.68 147.752C1416.5 147.615 1417.46 147.339 1418.29 146.925C1419.39 147.615 1420.62 148.167 1422 148.442C1422 149.27 1422 150.373 1422 151.613C1419.66 150.924 1417.19 149.131 1415.68 147.752ZM59.1 111.212C59.375 111.212 59.5125 111.073 59.65 111.073C60.2 111.625 60.8875 112.039 61.7125 112.176C61.7125 112.591 61.85 113.142 61.85 113.694C60.475 113.28 59.1 111.212 59.1 111.212ZM64.05 112.315C64.7375 112.176 65.2875 112.039 65.8375 111.763C66.25 112.039 66.525 112.176 66.9375 112.315C66.25 112.866 65.0125 113.555 63.9125 113.831C63.9125 113.142 63.9125 112.728 64.05 112.315ZM80 105.006C80.825 105.006 81.65 104.869 82.337 104.455C82.337 104.593 82.337 104.73 82.337 104.869C82.612 106.109 83.987 106.799 85.637 106.523C85.775 106.523 85.775 106.523 85.913 106.385C85.913 106.799 86.05 107.212 86.05 107.764C83.163 107.351 80 105.006 80 105.006ZM89.488 105.42C90.175 105.696 90.863 105.696 91.55 105.558C92.238 105.42 92.787 104.869 93.2 104.317C93.337 104.455 93.475 104.455 93.75 104.593C93.2 105.282 91.275 107.212 89.35 107.764C89.35 106.937 89.488 106.109 89.488 105.42ZM1426.81 148.442C1428.74 148.167 1430.39 147.339 1431.62 146.236C1432.04 146.374 1432.45 146.512 1432.86 146.649C1432.73 146.788 1429.42 150.924 1426.26 151.613C1426.54 150.51 1426.67 149.407 1426.81 148.442ZM1466.55 132.447C1466.96 132.309 1467.24 132.033 1467.65 131.895C1468.61 133.136 1469.85 134.102 1471.36 134.377C1472.88 134.791 1474.52 134.515 1475.9 133.826C1476.17 135.342 1476.45 136.997 1476.59 138.652C1472.32 138.1 1467.93 133.826 1466.55 132.447ZM1483.74 135.756C1484.01 135.756 1484.15 135.894 1484.43 135.894C1487.86 136.445 1491.02 134.653 1491.44 132.033C1491.44 131.757 1491.44 131.344 1491.44 131.068C1492.95 131.62 1494.74 132.033 1496.66 132.033C1496.53 132.171 1490.06 137.687 1483.6 138.79C1483.6 137.687 1483.74 136.584 1483.74 135.756ZM1766.99 104.869C1769.19 104.869 1771.39 104.455 1773.18 103.766C1773.18 104.179 1773.18 104.455 1773.18 104.869C1773.59 107.902 1777.3 109.97 1781.29 109.419C1781.56 109.419 1781.84 109.281 1782.11 109.281C1782.25 110.384 1782.25 111.487 1782.25 112.866C1774.69 111.487 1767.13 105.006 1766.99 104.869ZM1791.32 107.212C1792.97 108.04 1794.76 108.315 1796.55 107.764C1798.34 107.351 1799.85 106.248 1800.95 104.73C1801.36 105.006 1801.77 105.144 1802.19 105.42C1800.54 107.075 1795.45 111.901 1790.5 112.866C1790.78 111.073 1790.91 109.143 1791.32 107.212ZM1820.2 121.691C1820.61 121.553 1821.02 121.416 1821.57 121.277C1822.81 122.38 1824.46 123.208 1826.39 123.484C1826.52 124.587 1826.8 125.552 1826.8 126.656C1823.64 126.104 1820.2 121.829 1820.2 121.691ZM1831.06 129.689C1832.85 128.586 1836.15 126.38 1839.18 123.07C1839.59 123.07 1840 123.07 1840.41 123.07C1845.64 122.656 1849.49 118.658 1849.21 114.245C1848.94 109.97 1844.81 106.799 1839.86 106.799C1840 106.109 1840.14 105.42 1840.14 104.73C1839.86 100.732 1835.6 97.836 1830.65 98.2497C1826.94 98.5255 1823.91 100.594 1822.68 103.351C1822.4 103.351 1822.26 103.351 1821.99 103.351C1818.96 103.627 1816.76 105.696 1816.9 108.04C1816.9 108.454 1817.04 108.73 1817.18 109.005H1817.04C1812.23 109.419 1808.65 112.591 1808.93 116.176C1809.2 119.761 1813.32 122.38 1818.14 122.105C1818.55 122.105 1818.96 121.967 1819.38 121.967C1819.51 122.243 1819.79 122.519 1820.06 122.932C1823.09 126.931 1826.66 129.413 1827.21 129.827C1827.49 134.653 1827.35 139.479 1827.21 142.788C1815.66 142.788 1803.84 143.064 1791.74 143.34C1791.19 138.79 1789.95 128.172 1790.36 117.83C1791.46 117.141 1798.06 113.28 1803.56 106.799C1803.84 106.523 1803.98 106.248 1804.11 106.109C1804.39 106.109 1804.8 106.248 1805.07 106.248C1808.92 106.385 1812.23 104.041 1812.36 100.869C1812.5 99.077 1811.54 97.4223 1810.02 96.3192C1813.74 95.0782 1816.49 92.3204 1816.62 88.8731C1816.9 84.1848 1812.09 80.048 1806.18 79.7722C1806.04 79.7722 1806.04 79.7722 1805.9 79.7722C1806.04 79.2207 1806.17 78.6691 1806.31 78.1175C1806.59 73.9808 1802.46 70.3956 1797.1 70.1198C1794.49 69.9819 1792.15 70.6714 1790.36 71.9124C1788.85 70.2577 1786.65 69.1546 1784.04 69.0167C1779.36 68.7409 1775.38 71.9124 1775.1 76.0492C1774 75.6355 1772.76 75.4976 1771.66 75.3597C1765.61 75.0839 1760.53 78.807 1760.25 83.7711C1760.11 85.7016 1760.8 87.4941 1762.04 89.0109C1757.64 90.114 1754.47 92.8719 1754.2 96.3192C1754.06 100.318 1758.05 103.903 1763.69 105.006C1764.24 105.558 1765.06 106.523 1766.3 107.627C1772.35 113.142 1779.09 116.727 1782.66 118.382C1782.94 128.034 1782.94 139.755 1780.88 144.167C1698.65 146.788 1602.81 154.785 1484.98 164.714C1483.6 160.438 1483.46 151.2 1483.74 143.478C1486.76 142.099 1492.54 139.066 1497.76 134.239C1498.86 133.274 1499.55 132.584 1499.96 132.033C1504.77 131.068 1508.21 128.034 1508.07 124.587C1507.94 121.691 1505.19 119.347 1501.48 118.382C1502.44 117.141 1502.99 115.486 1502.99 113.97C1502.71 109.694 1498.45 106.523 1493.23 106.799C1492.13 106.799 1491.16 107.075 1490.2 107.351C1489.92 103.903 1486.62 101.145 1482.5 101.421C1480.3 101.559 1478.38 102.524 1477 103.903C1475.49 102.8 1473.43 102.248 1471.23 102.387C1466.69 102.662 1463.25 105.696 1463.39 109.281C1463.39 109.833 1463.53 110.246 1463.66 110.798H1463.39C1458.16 111.073 1454.17 114.521 1454.45 118.658C1454.59 121.553 1456.92 124.035 1460.09 125.001C1458.71 125.966 1458.02 127.344 1458.02 128.862C1458.16 131.62 1460.91 133.687 1464.35 133.412C1464.63 133.412 1464.9 133.412 1465.18 133.274C1465.31 133.412 1465.45 133.688 1465.73 133.826C1470.4 139.342 1476.04 142.651 1477 143.203C1477.41 152.165 1476.31 161.404 1475.76 165.265C1459.67 166.644 1443.17 168.023 1426.4 169.402C1426.12 166.092 1425.99 160.438 1426.4 154.923C1427.09 154.51 1430.53 152.165 1433.55 148.028C1433.83 147.615 1433.96 147.339 1434.24 147.063C1434.65 147.201 1435.06 147.201 1435.48 147.201C1440.29 147.615 1444.41 144.995 1444.69 141.272C1444.96 137.687 1441.25 134.377 1436.57 134.102H1436.44C1436.58 133.826 1436.71 133.412 1436.71 133.136C1436.85 130.792 1434.65 128.586 1431.62 128.448C1431.35 128.448 1431.21 128.448 1430.94 128.448C1429.84 125.69 1426.81 123.622 1422.96 123.346C1418.01 122.932 1413.75 125.828 1413.48 129.827C1413.48 130.516 1413.48 131.205 1413.61 131.895C1408.8 131.757 1404.67 135.066 1404.26 139.342C1403.99 143.891 1407.84 147.752 1413.06 148.167C1413.48 148.167 1413.89 148.167 1414.3 148.167C1417.33 151.613 1420.63 153.82 1422.41 154.785C1422.41 160.025 1422.14 166.368 1421.31 169.815C1395.6 172.021 1369.89 174.09 1344.18 176.296C1053.91 199.738 902.662 198.496 545.85 139.066C346.062 105.833 189.45 109.833 90.312 119.761C90.037 118.244 89.212 113.831 89.212 109.557C89.625 109.281 92.1 107.627 94.163 105.006C94.3 104.869 94.3 104.869 94.438 104.73C94.575 104.73 94.713 104.73 94.85 104.73C96.363 104.73 97.6 103.766 97.6 102.524C97.6 101.835 97.188 101.145 96.5 100.732C97.875 100.18 98.975 99.077 98.975 97.6981C98.975 95.9055 97.05 94.3887 94.712 94.3887H94.575C94.575 94.1129 94.712 93.9751 94.712 93.6993C94.712 92.0446 93.062 90.8036 91 90.8036C90.038 90.8036 89.075 91.0793 88.387 91.6309C88.112 91.3551 87.7 91.0793 87.288 90.8036C86.875 90.6657 86.325 90.5278 85.913 90.5278C84.125 90.5278 82.613 91.7688 82.613 93.4235C82.2 93.2856 81.65 93.2856 81.238 93.2856C78.9 93.2856 76.975 94.8024 76.975 96.7329C76.975 97.4223 77.25 98.1117 77.8 98.6633C76.15 99.2148 74.913 100.318 74.913 101.559C74.913 103.076 76.562 104.455 78.762 104.73C79.037 105.006 79.313 105.282 79.863 105.696C82.338 107.764 85.087 109.005 86.462 109.557C86.737 113.694 87.013 118.795 85.913 120.037C78.625 120.726 71.338 121.553 64.05 122.519C63.6375 121.277 63.775 117.83 63.9125 115.073C65.2875 114.383 66.6625 113.418 67.7625 112.315C67.9 112.315 68.175 112.315 68.3125 112.315C70.65 112.315 72.575 110.66 72.575 108.591C72.575 106.661 70.787 105.006 68.5875 104.869C68.725 104.593 68.725 104.317 68.725 103.903C68.725 102.111 66.9375 100.594 64.6 100.594C62.95 100.594 61.4375 101.421 60.8875 102.662C60.75 102.662 60.75 102.662 60.6125 102.662C59.2375 102.662 58.1375 103.49 58.1375 104.593C58.1375 104.73 58.1375 104.869 58.275 105.006C56.075 105.006 54.2875 106.385 54.2875 108.04C54.2875 109.694 56.075 111.073 58.275 111.073C58.4125 111.073 58.6875 111.073 58.825 111.073C59.65 112.591 60.75 113.831 62.125 114.934C62.125 118.658 61.4375 122.519 61.4375 122.932C1.9 130.378 -30 139.066 -30 139.066V222.214V248H1950V148.58C1913.29 144.443 1874.37 142.651 1831.89 142.651C1831.34 139.203 1831.06 134.102 1831.06 129.689Z" fill="#006A66"/>
<path d="M994.34 177.309C996.63 177.337 998.58 179.34 998.55 181.648C998.52 183.957 996.53 185.912 994.24 185.884C992.05 185.858 990 183.854 990.03 181.545C990.16 179.347 992.15 177.282 994.34 177.309Z" fill="white"/>
<path d="M1072.57 178.128C1074.94 178.157 1076.94 180.221 1076.91 182.601C1076.88 184.981 1074.83 186.996 1072.46 186.967C1070.1 186.938 1068.21 184.875 1068.24 182.609C1068.27 180.002 1070.09 178.098 1072.57 178.128Z" fill="white"/>
<path d="M1072.64 175.324C1076.61 175.372 1079.72 178.633 1079.67 182.634C1079.63 186.524 1076.33 189.818 1072.41 189.77C1068.38 189.666 1065.32 186.517 1065.31 182.459C1065.36 178.514 1068.72 175.276 1072.64 175.324ZM1072.56 186.327C1074.66 186.408 1076.39 184.65 1076.36 182.538C1076.33 180.481 1074.69 178.739 1072.65 178.714C1070.61 178.689 1068.71 180.444 1068.79 182.502C1068.82 184.725 1070.18 186.242 1072.56 186.327Z" fill="#006A66"/>
<path d="M994.54 174.375C998.63 174.48 1001.62 177.795 1001.52 181.684C1001.47 185.685 998.29 188.759 994.36 188.822C990.44 188.83 987.22 185.457 987.27 181.511C987.26 177.51 990.56 174.271 994.54 174.375ZM994.29 185.431C996.28 185.455 998.07 183.699 998.1 181.643C998.18 179.587 996.38 177.732 994.33 177.707C992.29 177.682 990.5 179.439 990.48 181.495C990.5 183.607 992.25 185.407 994.29 185.431Z" fill="#006A66"/>
<path d="M957.788 153.254C957.913 152.033 958.698 151.098 959.755 150.444C961.37 149.407 963.195 149.207 965.074 149.174C965.957 149.185 966.674 149.305 967.352 148.091C968.482 145.937 970.6 144.518 972.71 143.432C976.93 141.316 981.64 140.817 986.28 140.651C989.98 140.529 993.62 140.685 997.33 140.73C1004.56 140.818 1011.8 140.906 1018.98 140.993C1020.69 141.014 1022.23 141.477 1023.09 143.21C1023.2 143.434 1023.58 143.661 1023.86 143.664C1048.71 143.966 1073.57 144.268 1098.42 144.57C1099.25 144.58 1100.08 144.368 1100.91 144.212C1101.85 144.001 1102.8 143.679 1103.79 143.524C1106.23 143.22 1108.97 144.532 1109.94 146.655C1110.05 146.879 1110.05 147.101 1110.04 147.324C1110.04 147.546 1109.98 147.767 1110.03 147.99C1110.46 149.052 1111.17 150.116 1111.32 151.229C1111.88 155.516 1112.43 159.802 1112.66 164.084C1112.87 169.033 1112.76 174.033 1112.75 179.035C1112.74 179.868 1112.51 180.755 1112.17 181.528C1111.94 182.026 1111.33 182.519 1110.83 182.624C1107.89 183.255 1104.91 183.663 1101.97 184.239C1099.37 184.763 1096.77 185.009 1094.12 185.033C1089.59 185.033 1085.06 184.7 1080.58 185.368C1080.08 185.418 1079.86 185.304 1079.93 184.694C1080 183.138 1080.13 181.584 1079.54 180.02C1078.52 177.229 1076.61 175.483 1073.74 175.059C1070.66 174.577 1068.16 175.714 1066.36 178.304C1065.12 180.068 1064.93 182.066 1064.96 184.123C1065 185.235 1064.95 185.29 1063.79 185.275C1062.57 185.261 1061.41 185.247 1060.2 185.232C1045.01 185.047 1029.82 184.807 1014.69 184.679C1010.6 184.629 1006.46 184.134 1002.37 185.029C1001.92 185.135 1001.81 184.911 1001.82 184.467C1001.89 183.578 1001.79 182.632 1001.85 181.744C1002.12 177.579 998.47 173.811 994.21 173.982C991.01 174.11 988 176.185 987.24 179.344C986.84 180.95 986.87 182.674 986.74 184.339C986.74 184.784 986.62 184.949 986.13 184.888C984.97 184.707 983.76 184.525 982.6 184.511C977.3 184.391 971.99 184.327 966.692 184.207C966.084 184.199 965.477 184.136 964.871 184.018C963.052 183.718 961.795 182.591 961.704 181.034C961.613 179.366 961.413 177.696 961.488 176.029C961.641 172.53 961.849 169.087 962.167 165.589C962.358 163.535 962.77 161.484 963.125 159.488C963.243 158.933 963.414 158.435 963.532 157.881C963.649 157.327 963.821 156.829 963.938 156.274C964.053 155.887 964.223 155.5 964.339 155.112C964.395 155.002 964.452 154.836 964.454 154.724C964.51 154.614 964.512 154.447 964.569 154.337C964.683 154.005 964.852 153.729 964.967 153.397C965.024 153.286 965.081 153.12 965.137 153.01C965.251 152.789 965.309 152.567 965.422 152.346C965.477 152.347 965.476 152.403 965.531 152.403C965.418 152.624 965.36 152.846 965.247 153.067C965.191 153.177 965.133 153.343 965.077 153.454C964.962 153.786 964.793 154.062 964.679 154.394C964.622 154.504 964.62 154.671 964.564 154.781C964.507 154.892 964.45 155.058 964.393 155.168C964.278 155.556 964.107 155.943 963.992 156.386C963.874 156.94 963.703 157.439 963.585 157.993C963.468 158.547 963.296 159.045 963.179 159.6C962.821 161.818 962.518 164.038 962.159 166.256C962.039 167.088 962.146 167.312 962.921 167.21C963.087 167.212 963.311 166.937 963.368 166.771C963.674 164.33 963.87 161.887 964.285 159.502C964.701 157.117 965.392 154.791 965.973 152.464C966.031 152.187 966.034 151.965 966.093 151.688C965.925 151.852 965.756 152.073 965.644 152.238C965.588 152.293 965.531 152.403 965.531 152.459C965.476 152.458 965.476 152.403 965.421 152.402C965.203 152.177 966.259 151.634 965.32 151.623C963.939 151.606 962.612 151.701 961.229 151.906C960.62 152.01 960.117 152.504 959.615 152.887C959.058 153.269 959.773 153.5 959.715 153.778C959.532 155.165 959.405 156.553 959.168 157.884C959.11 158.105 958.664 158.433 958.443 158.431C958.112 158.371 957.564 158.031 957.567 157.809C957.64 156.309 957.604 154.752 957.788 153.254ZM1109.57 177.051C1109.56 177.773 1110 178.168 1110.77 178.177C1112.59 178.199 1112.59 178.199 1112.62 176.365C1112.62 176.032 1112.62 175.754 1112.63 175.421C1112.63 175.421 1112.63 175.421 1112.57 175.42C1112.58 174.642 1112.59 173.92 1112.6 173.142C1112.61 172.697 1112.44 172.473 1111.95 172.467C1111.28 172.514 1110.68 172.396 1110.01 172.499C1109.79 172.496 1109.51 172.826 1109.51 172.993C1109.49 174.382 1109.53 175.717 1109.57 177.051ZM1085.02 160.969C1088.44 161.011 1091.87 161.052 1095.29 161.094C1098.5 161.133 1101.75 161.172 1104.96 161.211C1105.9 161.223 1106.56 161.009 1107.12 160.237C1108.97 157.926 1110.17 155.384 1109.49 152.263C1109.07 150.424 1108.15 148.801 1106.89 147.452C1106.62 147.171 1106.07 146.997 1105.63 146.992C1098.78 146.853 1091.99 146.826 1085.14 146.688C1084.59 146.681 1084.47 146.902 1084.47 147.402C1084.41 151.681 1084.36 155.959 1084.31 160.238C1084.3 160.794 1084.47 160.962 1085.02 160.969ZM1061.33 159.959C1061.33 160.514 1061.49 160.683 1062.04 160.69C1065.36 160.73 1068.67 160.77 1071.98 160.811C1075.24 160.85 1078.5 160.89 1081.82 160.93C1082.42 160.937 1082.59 160.773 1082.6 160.162C1082.65 155.938 1082.7 151.66 1082.75 147.437C1082.76 146.881 1082.6 146.657 1081.99 146.649C1075.42 146.569 1068.84 146.49 1062.33 146.41C1061.72 146.403 1061.55 146.623 1061.54 147.179C1061.44 151.457 1061.39 155.68 1061.33 159.959ZM1038.47 159.57C1038.46 160.181 1038.63 160.35 1039.23 160.357C1042.55 160.342 1045.81 160.437 1049.12 160.477C1052.38 160.517 1055.64 160.556 1058.9 160.596C1059.5 160.603 1059.62 160.438 1059.62 159.882C1059.67 155.659 1059.73 151.381 1059.78 147.157C1059.79 146.491 1059.57 146.377 1058.96 146.369C1052.44 146.29 1045.87 146.21 1039.35 146.131C1038.74 146.124 1038.58 146.288 1038.57 146.9C1038.63 151.124 1038.58 155.347 1038.47 159.57ZM1016.31 160.134C1019.57 160.174 1022.83 160.213 1026.09 160.253C1029.4 160.293 1032.66 160.333 1035.97 160.373C1036.47 160.379 1036.75 160.271 1036.76 159.716C1036.81 155.437 1036.86 151.214 1036.91 146.935C1036.92 146.324 1036.7 146.154 1036.15 146.148C1029.57 146.068 1023.06 145.989 1016.49 145.909C1015.93 145.902 1015.76 146.122 1015.76 146.622C1015.71 150.901 1015.65 155.18 1015.6 159.459C1015.6 159.959 1015.82 160.128 1016.31 160.134ZM990.32 153.594C990.19 155.537 989.78 157.366 988.93 159.134C988.7 159.576 988.7 159.799 989.3 159.806C997.26 159.903 1005.16 159.999 1013.11 160.095C1013.61 160.101 1013.83 159.993 1013.84 159.437C1013.89 155.158 1013.94 150.88 1013.99 146.601C1014 146.045 1013.78 145.876 1013.28 145.87C1009.31 145.822 1005.33 145.773 1001.35 145.725C997.43 145.677 993.51 145.63 989.64 145.583C988.81 145.573 988.76 145.85 989.02 146.464C989.88 148.698 990.46 151.095 990.32 153.594ZM978.63 156.397C978.59 159.842 978.55 163.288 978.5 166.733C978.5 166.899 978.56 167.067 978.61 167.234C978.72 167.124 978.94 167.072 979 166.961C980.63 164.813 982.31 162.722 983.83 160.517C985.68 157.872 986.93 154.942 986.53 151.603C986.28 149.488 985.53 147.589 984.39 145.852C984.28 145.629 983.9 145.513 983.68 145.51C982.24 145.437 980.75 145.475 979.32 145.457C978.82 145.451 978.76 145.673 978.75 146.117C978.71 149.507 978.67 152.952 978.63 156.397ZM972.06 169.544C973.39 169.561 974.77 169.522 976.09 169.593C976.87 169.603 977.15 169.328 977.16 168.55C977.21 164.216 977.26 159.937 977.31 155.603C977.35 152.491 977.39 149.38 977.43 146.268C977.44 145.545 977.16 145.264 976.44 145.311C975.06 145.35 973.68 145.278 972.36 145.261C971.75 145.254 971.47 145.473 971.46 146.14C971.42 149.918 971.37 153.641 971.33 157.42C971.28 161.143 971.24 164.866 971.19 168.589C971.13 169.366 971.45 169.537 972.06 169.544ZM961.962 177.98C961.96 178.147 961.903 178.258 961.901 178.424C961.899 178.591 961.953 178.703 961.951 178.869C961.953 178.703 962.01 178.537 962.012 178.37C961.959 178.203 961.96 178.091 961.962 177.98Z" fill="#006A66"/>
<path d="M1072.58 180.381C1073.74 180.395 1074.72 181.407 1074.7 182.574C1074.69 183.741 1073.68 184.729 1072.52 184.715C1071.36 184.701 1070.44 183.689 1070.45 182.578C1070.47 181.3 1071.36 180.366 1072.58 180.381Z" fill="#006A66"/>
<path d="M994.31 179.429C995.47 179.443 996.46 180.456 996.44 181.623C996.43 182.79 995.42 183.778 994.26 183.764C993.16 183.75 992.12 182.737 992.13 181.57C992.2 180.46 993.21 179.416 994.31 179.429Z" fill="#006A66"/>
</svg>
