<svg width="1920" height="240" viewBox="0 0 1920 240" fill="none" xmlns="http://www.w3.org/2000/svg">
<mask id="mask0_0_238" style="mask-type:alpha" maskUnits="userSpaceOnUse" x="0" y="0" width="1920" height="240">
<path d="M310.266 54.3946C310 54.3946 309.733 54.2616 309.6 54.1285C309.466 53.9954 309.333 53.7293 309.333 53.4632V46.2777C309.333 45.7454 308.934 45.3462 308.4 45.3462H300.4C300.134 45.3462 299.867 45.4793 299.733 45.6124C299.6 45.7454 299.467 46.0116 299.467 46.2777V48.8059C299.467 49.3382 299.066 49.7374 298.533 49.7374H295.2C294.933 49.7374 294.667 49.8704 294.533 50.0035C294.4 50.1366 294.266 50.4027 294.266 50.6688V113.342C294.266 113.874 294.667 114.274 295.2 114.274H315.866C316.133 114.274 316.4 114.14 316.533 114.008C316.666 113.874 316.8 113.608 316.8 113.342V55.4591C316.8 54.9269 316.4 54.5277 315.866 54.5277H310.266V54.3946ZM288.667 46.1446C288.667 45.6124 288.267 45.2132 287.6 45.2132H266.933C266.667 45.2132 266.4 45.3462 266.266 45.4793C266.133 45.6124 266 45.8785 266 46.1446V113.342C266 113.874 266.4 114.274 267.067 114.274H287.733C288 114.274 288.267 114.14 288.4 114.008C288.533 113.874 288.667 113.608 288.667 113.342V46.1446Z" fill="#0971BD"/>
<path d="M343.333 34.3019C343.333 34.0357 343.2 33.7696 343.066 33.6366C342.933 33.5035 342.667 33.3704 342.4 33.3704H308.533C308.267 33.3704 308 33.5035 307.866 33.6366C307.733 33.7696 307.6 34.0357 307.6 34.3019V114.806C307.6 115.338 308 115.871 308.666 115.871H342.533C342.799 115.871 343.066 115.737 343.2 115.604C343.333 115.471 343.467 115.205 343.467 114.939V34.3019H343.333ZM232.933 13.5438C232.666 13.5438 232.4 13.4108 232.267 13.2777C232.133 13.1446 232 12.8785 232 12.6124V11.5478C232 11.2817 231.867 11.0156 231.733 10.8825C231.6 10.7495 231.334 10.6164 231.067 10.6164H195.067C194.8 10.6164 194.534 10.7495 194.4 10.8825C194.267 11.0156 194.133 11.2817 194.133 11.5478V12.4793C194.133 12.7454 194 13.0116 193.867 13.1446C193.733 13.2777 193.466 13.4108 193.2 13.4108H191.6C191.333 13.4108 191.066 13.5438 190.933 13.6769C190.8 13.8099 190.667 14.0761 190.667 14.3422V113.209C190.667 113.742 191.066 114.14 191.6 114.14H234.933C235.2 114.14 235.467 114.008 235.6 113.874C235.733 113.742 235.866 113.475 235.866 113.209V14.6083C235.866 14.3422 235.733 14.0761 235.6 13.943C235.467 13.8099 235.2 13.6769 234.933 13.6769H232.933V13.5438ZM407.733 62.5116C408.267 62.5116 409.067 62.7777 409.467 63.1769L414.4 68.2333C414.799 68.6325 415.066 69.4309 415.066 69.9632V114.806C415.066 115.338 414.667 115.737 414.133 115.737H392.134C391.867 115.737 391.6 115.604 391.467 115.471C391.334 115.338 391.2 115.072 391.2 114.806V63.443C391.2 62.9107 391.6 62.5116 392.134 62.5116H407.733ZM372.666 32.1728C372.4 32.0398 372.133 31.9067 371.866 31.9067C371.6 31.9067 371.333 32.0398 371.066 32.1728L358.533 43.7495C358.133 44.1487 357.733 44.947 357.733 45.4793V114.806C357.733 115.072 357.867 115.338 358 115.471C358.133 115.604 358.4 115.737 358.667 115.737H384.533C384.8 115.737 385.067 115.604 385.2 115.471C385.333 115.338 385.467 115.072 385.467 114.806V45.4793C385.467 44.947 385.067 44.1487 384.667 43.7495L372.666 32.1728Z" fill="#0971BD"/>
<path d="M373.865 61.5801C373.865 62.1124 373.331 62.5116 372.531 62.5116H371.198C370.532 62.5116 369.865 62.1124 369.865 61.5801V58.2535C369.865 57.7212 370.398 57.322 371.198 57.322H372.531C373.199 57.322 373.865 57.7212 373.865 58.2535V61.5801ZM226.931 31.9067C226.532 31.9067 226.131 31.2414 226.131 30.5761V29.2454C226.131 28.447 226.532 27.9148 226.931 27.9148H229.331C229.732 27.9148 230.131 28.5801 230.131 29.2454V30.5761C230.131 31.3745 229.732 31.9067 229.331 31.9067H226.931ZM226.931 63.8422C226.532 63.8422 226.131 63.1769 226.131 62.5116V61.1809C226.131 60.3825 226.532 59.8503 226.931 59.8503H229.331C229.732 59.8503 230.131 60.5156 230.131 61.1809V62.5116C230.131 63.3099 229.732 63.8422 229.331 63.8422H226.931ZM226.931 55.8583C226.532 55.8583 226.131 55.193 226.131 54.5277V53.197C226.131 52.3987 226.532 51.8664 226.931 51.8664H229.331C229.732 51.8664 230.131 52.5317 230.131 53.197V54.5277C230.131 55.3261 229.732 55.8583 229.331 55.8583H226.931ZM226.931 39.8906C226.532 39.8906 226.131 39.2253 226.131 38.5599V37.2293C226.131 36.4309 226.532 35.8987 226.931 35.8987H229.331C229.732 35.8987 230.131 36.564 230.131 37.2293V38.5599C230.131 39.3583 229.732 39.8906 229.331 39.8906H226.931ZM226.931 47.8745C226.532 47.8745 226.131 47.2091 226.131 46.5438V45.2132C226.131 44.4148 226.532 43.8825 226.931 43.8825H229.331C229.732 43.8825 230.131 44.5479 230.131 45.2132V46.5438C230.131 47.3422 229.732 47.8745 229.331 47.8745H226.931ZM216.265 31.9067C215.865 31.9067 215.465 31.2414 215.465 30.5761V29.2454C215.465 28.447 215.865 27.9148 216.265 27.9148H218.665C219.065 27.9148 219.465 28.5801 219.465 29.2454V30.5761C219.465 31.3745 219.065 31.9067 218.665 31.9067H216.265ZM216.265 63.8422C215.865 63.8422 215.465 63.1769 215.465 62.5116V61.1809C215.465 60.3825 215.865 59.8503 216.265 59.8503H218.665C219.065 59.8503 219.465 60.5156 219.465 61.1809V62.5116C219.465 63.3099 219.065 63.8422 218.665 63.8422H216.265ZM216.265 55.8583C215.865 55.8583 215.465 55.193 215.465 54.5277V53.197C215.465 52.3987 215.865 51.8664 216.265 51.8664H218.665C219.065 51.8664 219.465 52.5317 219.465 53.197V54.5277C219.465 55.3261 219.065 55.8583 218.665 55.8583H216.265ZM216.265 39.8906C215.865 39.8906 215.465 39.2253 215.465 38.5599V37.2293C215.465 36.4309 215.865 35.8987 216.265 35.8987H218.665C219.065 35.8987 219.465 36.564 219.465 37.2293V38.5599C219.465 39.3583 219.065 39.8906 218.665 39.8906H216.265ZM216.265 47.8745C215.865 47.8745 215.465 47.2091 215.465 46.5438V45.2132C215.465 44.4148 215.865 43.8825 216.265 43.8825H218.665C219.065 43.8825 219.465 44.5479 219.465 45.2132V46.5438C219.465 47.3422 219.065 47.8745 218.665 47.8745H216.265ZM207.065 31.9067C206.665 31.9067 206.265 31.2414 206.265 30.5761V29.2454C206.265 28.447 206.665 27.9148 207.065 27.9148H209.465C209.865 27.9148 210.265 28.5801 210.265 29.2454V30.5761C210.265 31.3745 209.865 31.9067 209.465 31.9067H207.065ZM207.065 63.8422C206.665 63.8422 206.265 63.1769 206.265 62.5116V61.1809C206.265 60.3825 206.665 59.8503 207.065 59.8503H209.465C209.865 59.8503 210.265 60.5156 210.265 61.1809V62.5116C210.265 63.3099 209.865 63.8422 209.465 63.8422H207.065ZM207.065 55.8583C206.665 55.8583 206.265 55.193 206.265 54.5277V53.197C206.265 52.3987 206.665 51.8664 207.065 51.8664H209.465C209.865 51.8664 210.265 52.5317 210.265 53.197V54.5277C210.265 55.3261 209.865 55.8583 209.465 55.8583H207.065ZM207.065 39.8906C206.665 39.8906 206.265 39.2253 206.265 38.5599V37.2293C206.265 36.4309 206.665 35.8987 207.065 35.8987H209.465C209.865 35.8987 210.265 36.564 210.265 37.2293V38.5599C210.265 39.3583 209.865 39.8906 209.465 39.8906H207.065ZM207.065 47.8745C206.665 47.8745 206.265 47.2091 206.265 46.5438V45.2132C206.265 44.4148 206.665 43.8825 207.065 43.8825H209.465C209.865 43.8825 210.265 44.5479 210.265 45.2132V46.5438C210.265 47.3422 209.865 47.8745 209.465 47.8745H207.065ZM197.732 31.9067C197.331 31.9067 196.932 31.2414 196.932 30.5761V29.2454C196.932 28.447 197.331 27.9148 197.732 27.9148H200.132C200.531 27.9148 200.932 28.5801 200.932 29.2454V30.5761C200.932 31.3745 200.531 31.9067 200.132 31.9067H197.732ZM197.732 63.8422C197.331 63.8422 196.932 63.1769 196.932 62.5116V61.1809C196.932 60.3825 197.331 59.8503 197.732 59.8503H200.132C200.531 59.8503 200.932 60.5156 200.932 61.1809V62.5116C200.932 63.3099 200.531 63.8422 200.132 63.8422H197.732ZM197.732 55.8583C197.331 55.8583 196.932 55.193 196.932 54.5277V53.197C196.932 52.3987 197.331 51.8664 197.732 51.8664H200.132C200.531 51.8664 200.932 52.5317 200.932 53.197V54.5277C200.932 55.3261 200.531 55.8583 200.132 55.8583H197.732ZM197.732 39.8906C197.331 39.8906 196.932 39.2253 196.932 38.5599V37.2293C196.932 36.4309 197.331 35.8987 197.732 35.8987H200.132C200.531 35.8987 200.932 36.564 200.932 37.2293V38.5599C200.932 39.3583 200.531 39.8906 200.132 39.8906H197.732ZM197.732 47.8745C197.331 47.8745 196.932 47.2091 196.932 46.5438V45.2132C196.932 44.4148 197.331 43.8825 197.732 43.8825H200.132C200.531 43.8825 200.932 44.5479 200.932 45.2132V46.5438C200.932 47.3422 200.531 47.8745 200.132 47.8745H197.732ZM226.931 95.7777C226.532 95.7777 226.131 95.1124 226.131 94.447V93.1164C226.131 92.318 226.532 91.7858 226.931 91.7858H229.331C229.732 91.7858 230.131 92.4511 230.131 93.1164V94.447C230.131 95.2454 229.732 95.7777 229.331 95.7777H226.931ZM226.931 87.7938C226.532 87.7938 226.131 87.1285 226.131 86.4632V85.1325C226.131 84.3341 226.532 83.8019 226.931 83.8019H229.331C229.732 83.8019 230.131 84.4672 230.131 85.1325V86.4632C230.131 87.2616 229.732 87.7938 229.331 87.7938H226.931ZM226.931 71.8261C226.532 71.8261 226.131 71.1608 226.131 70.4954V69.1648C226.131 68.3664 226.532 67.8341 226.931 67.8341H229.331C229.732 67.8341 230.131 68.4995 230.131 69.1648V70.4954C230.131 71.2938 229.732 71.8261 229.331 71.8261H226.931ZM226.931 79.8099C226.532 79.8099 226.131 79.1446 226.131 78.4793V77.1487C226.131 76.3503 226.532 75.818 226.931 75.818H229.331C229.732 75.818 230.131 76.4833 230.131 77.1487V78.4793C230.131 79.2777 229.732 79.8099 229.331 79.8099H226.931ZM216.265 95.7777C215.865 95.7777 215.465 95.1124 215.465 94.447V93.1164C215.465 92.318 215.865 91.7858 216.265 91.7858H218.665C219.065 91.7858 219.465 92.4511 219.465 93.1164V94.447C219.465 95.2454 219.065 95.7777 218.665 95.7777H216.265ZM216.265 87.7938C215.865 87.7938 215.465 87.1285 215.465 86.4632V85.1325C215.465 84.3341 215.865 83.8019 216.265 83.8019H218.665C219.065 83.8019 219.465 84.4672 219.465 85.1325V86.4632C219.465 87.2616 219.065 87.7938 218.665 87.7938H216.265ZM216.265 71.8261C215.865 71.8261 215.465 71.1608 215.465 70.4954V69.1648C215.465 68.3664 215.865 67.8341 216.265 67.8341H218.665C219.065 67.8341 219.465 68.4995 219.465 69.1648V70.4954C219.465 71.2938 219.065 71.8261 218.665 71.8261H216.265ZM216.265 79.8099C215.865 79.8099 215.465 79.1446 215.465 78.4793V77.1487C215.465 76.3503 215.865 75.818 216.265 75.818H218.665C219.065 75.818 219.465 76.4833 219.465 77.1487V78.4793C219.465 79.2777 219.065 79.8099 218.665 79.8099H216.265ZM207.065 95.7777C206.665 95.7777 206.265 95.1124 206.265 94.447V93.1164C206.265 92.318 206.665 91.7858 207.065 91.7858H209.465C209.865 91.7858 210.265 92.4511 210.265 93.1164V94.447C210.265 95.2454 209.865 95.7777 209.465 95.7777H207.065ZM207.065 87.7938C206.665 87.7938 206.265 87.1285 206.265 86.4632V85.1325C206.265 84.3341 206.665 83.8019 207.065 83.8019H209.465C209.865 83.8019 210.265 84.4672 210.265 85.1325V86.4632C210.265 87.2616 209.865 87.7938 209.465 87.7938H207.065ZM207.065 71.8261C206.665 71.8261 206.265 71.1608 206.265 70.4954V69.1648C206.265 68.3664 206.665 67.8341 207.065 67.8341H209.465C209.865 67.8341 210.265 68.4995 210.265 69.1648V70.4954C210.265 71.2938 209.865 71.8261 209.465 71.8261H207.065ZM207.065 79.8099C206.665 79.8099 206.265 79.1446 206.265 78.4793V77.1487C206.265 76.3503 206.665 75.818 207.065 75.818H209.465C209.865 75.818 210.265 76.4833 210.265 77.1487V78.4793C210.265 79.2777 209.865 79.8099 209.465 79.8099H207.065ZM197.732 95.7777C197.331 95.7777 196.932 95.1124 196.932 94.447V93.1164C196.932 92.318 197.331 91.7858 197.732 91.7858H200.132C200.531 91.7858 200.932 92.4511 200.932 93.1164V94.447C200.932 95.2454 200.531 95.7777 200.132 95.7777H197.732ZM197.732 87.7938C197.331 87.7938 196.932 87.1285 196.932 86.4632V85.1325C196.932 84.3341 197.331 83.8019 197.732 83.8019H200.132C200.531 83.8019 200.932 84.4672 200.932 85.1325V86.4632C200.932 87.2616 200.531 87.7938 200.132 87.7938H197.732ZM197.732 71.8261C197.331 71.8261 196.932 71.1608 196.932 70.4954V69.1648C196.932 68.3664 197.331 67.8341 197.732 67.8341H200.132C200.531 67.8341 200.932 68.4995 200.932 69.1648V70.4954C200.932 71.2938 200.531 71.8261 200.132 71.8261H197.732ZM197.732 79.8099C197.331 79.8099 196.932 79.1446 196.932 78.4793V77.1487C196.932 76.3503 197.331 75.818 197.732 75.818H200.132C200.531 75.818 200.932 76.4833 200.932 77.1487V78.4793C200.932 79.2777 200.531 79.8099 200.132 79.8099H197.732ZM373.865 70.8946C373.865 71.4269 373.331 71.8261 372.531 71.8261H371.198C370.532 71.8261 369.865 71.4269 369.865 70.8946V67.568C369.865 67.0358 370.398 66.6366 371.198 66.6366H372.531C373.199 66.6366 373.865 67.0358 373.865 67.568V70.8946ZM373.865 81.5398C373.865 82.072 373.331 82.4712 372.531 82.4712H371.198C370.532 82.4712 369.865 82.072 369.865 81.5398V78.2132C369.865 77.6809 370.398 77.2817 371.198 77.2817H372.531C373.199 77.2817 373.865 77.6809 373.865 78.2132V81.5398ZM280.798 58.9188C280.798 59.4511 280.399 59.8503 279.865 59.8503H277.865C277.598 59.8503 277.331 59.7172 277.199 59.5841C277.065 59.4511 276.932 59.1849 276.932 58.9188V55.4591C276.932 54.9269 277.331 54.5277 277.865 54.5277H279.865C280.399 54.5277 280.798 54.9269 280.798 55.4591V58.9188ZM280.798 70.8946C280.798 71.4269 280.399 71.8261 279.865 71.8261H277.865C277.598 71.8261 277.331 71.693 277.199 71.56C277.065 71.4269 276.932 71.1608 276.932 70.8946V67.4349C276.932 66.9027 277.331 66.5035 277.865 66.5035H279.865C280.399 66.5035 280.798 66.9027 280.798 67.4349V70.8946ZM280.798 80.2091C280.798 80.7414 280.399 81.1406 279.865 81.1406H277.865C277.598 81.1406 277.331 81.0075 277.199 80.8745C277.065 80.7414 276.932 80.4753 276.932 80.2091V76.7495C276.932 76.2172 277.331 75.818 277.865 75.818H279.865C280.399 75.818 280.798 76.2172 280.798 76.7495V80.2091ZM404.531 86.8624C404.531 87.3946 404.932 87.7938 405.598 87.7938H407.465C407.998 87.7938 408.531 87.3946 408.531 86.8624V84.8664C408.531 84.3341 408.132 83.9349 407.465 83.9349H405.598C405.065 83.9349 404.531 84.3341 404.531 84.8664V86.8624ZM404.531 78.8785C404.531 79.4108 404.932 79.8099 405.598 79.8099H407.465C407.998 79.8099 408.531 79.4108 408.531 78.8785V76.8825C408.531 76.3503 408.132 75.9511 407.465 75.9511H405.598C405.065 75.9511 404.531 76.3503 404.531 76.8825V78.8785ZM404.531 93.5156C404.531 94.0479 404.932 94.447 405.598 94.447H407.465C407.998 94.447 408.531 94.0479 408.531 93.5156V91.5196C408.531 90.9874 408.132 90.5882 407.465 90.5882H405.598C405.065 90.5882 404.531 90.9874 404.531 91.5196V93.5156ZM396.531 86.8624C396.531 87.3946 396.932 87.7938 397.598 87.7938H399.465C399.998 87.7938 400.531 87.3946 400.531 86.8624V84.8664C400.531 84.3341 400.132 83.9349 399.465 83.9349H397.598C397.065 83.9349 396.531 84.3341 396.531 84.8664V86.8624ZM396.531 78.8785C396.531 79.4108 396.932 79.8099 397.598 79.8099H399.465C399.998 79.8099 400.531 79.4108 400.531 78.8785V76.8825C400.531 76.3503 400.132 75.9511 399.465 75.9511H397.598C397.065 75.9511 396.531 76.3503 396.531 76.8825V78.8785ZM396.531 93.5156C396.531 94.0479 396.932 94.447 397.598 94.447H399.465C399.998 94.447 400.531 94.0479 400.531 93.5156V91.5196C400.531 90.9874 400.132 90.5882 399.465 90.5882H397.598C397.065 90.5882 396.531 90.9874 396.531 91.5196V93.5156ZM404.531 102.83C404.531 103.363 404.932 103.761 405.598 103.761H407.465C407.998 103.761 408.531 103.363 408.531 102.83V100.834C408.531 100.302 408.132 99.9029 407.465 99.9029H405.598C405.065 99.9029 404.531 100.302 404.531 100.834V102.83ZM396.531 102.83C396.531 103.363 396.932 103.761 397.598 103.761H399.465C399.998 103.761 400.531 103.363 400.531 102.83V100.834C400.531 100.302 400.132 99.9029 399.465 99.9029H397.598C397.065 99.9029 396.531 100.302 396.531 100.834V102.83Z" fill="white"/>
<path d="M267.731 21.2617C267.465 21.2617 267.198 21.1287 267.065 20.9956C266.931 20.8626 266.799 20.5964 266.799 20.3303V18.8666C266.799 18.6005 266.665 18.3343 266.532 18.2013C266.398 18.0682 266.131 17.9351 265.865 17.9351H265.065C264.798 17.9351 264.531 17.8021 264.399 17.669C264.265 17.5359 264.132 17.2698 264.132 17.0037V15.673C264.132 15.4069 263.998 15.1408 263.865 15.0077C263.731 14.8747 263.465 14.7416 263.198 14.7416H257.598C257.065 14.7416 256.531 14.3424 256.531 13.8101C256.531 13.2779 256.399 12.8787 256.399 12.8787C256.399 12.8787 256.265 12.4795 256.265 11.8142V1.16901C256.265 0.63675 256.132 0.104492 255.865 0.104492C255.599 0.104492 255.465 0.503686 255.465 1.16901V11.8142C255.465 12.3464 255.332 12.8787 255.332 12.8787C255.198 12.8787 255.198 13.2779 255.198 13.8101C255.198 14.3424 254.799 14.7416 254.131 14.7416H248.531C248.265 14.7416 247.998 14.8747 247.865 15.0077C247.731 15.1408 247.599 15.4069 247.599 15.673V17.0037C247.599 17.2698 247.465 17.5359 247.332 17.669C247.198 17.8021 246.931 17.9351 246.665 17.9351H245.331C245.065 17.9351 244.798 18.0682 244.665 18.2013C244.531 18.3343 244.399 18.6005 244.399 18.8666V20.3303C244.399 20.5964 244.265 20.8626 244.132 20.9956C243.998 21.1287 243.731 21.2617 243.465 21.2617C243.198 21.2617 242.931 21.3948 242.799 21.5279C242.665 21.6609 242.532 21.9271 242.532 22.1932V114.673C242.532 115.205 242.931 115.738 243.599 115.738H268.132C268.665 115.738 269.199 115.338 269.199 114.673V22.1932C269.199 21.9271 269.065 21.6609 268.932 21.5279C268.265 21.2618 267.998 21.2617 267.731 21.2617ZM155.599 68.8988C155.599 68.8988 155.332 68.4996 154.931 68.1005L146.265 57.5884C145.865 57.1892 145.331 57.1892 144.932 57.5884L136.265 68.1005C135.865 68.4996 135.599 68.8988 135.599 68.8988C135.599 68.8988 135.599 69.298 135.599 69.9634V114.806C135.599 115.338 135.998 115.871 136.531 115.871H154.665C154.931 115.871 155.198 115.738 155.332 115.604C155.465 115.472 155.599 115.206 155.599 114.94V69.8303C155.731 69.298 155.599 68.8988 155.599 68.8988ZM163.332 51.6005C162.799 51.7335 162.398 52.3988 162.398 52.9311V113.475C162.398 114.008 162.799 114.407 163.465 114.407H193.331C193.598 114.407 193.865 114.274 193.999 114.141C194.131 114.008 194.265 113.742 194.265 113.475V43.3505C194.265 42.8182 193.865 42.5521 193.331 42.6851L163.332 51.6005Z" fill="#0971BD"/>
<path d="M258.131 36.1648C258.131 36.697 257.598 37.2293 256.932 37.2293H256.798C256.132 37.2293 255.599 36.697 255.599 36.1648V34.3019C255.599 33.7696 256.132 33.2374 256.798 33.2374H256.932C257.598 33.2374 258.131 33.7696 258.131 34.3019V36.1648ZM258.131 44.1487C258.131 44.6809 257.598 45.2132 256.932 45.2132H256.798C256.132 45.2132 255.599 44.6809 255.599 44.1487V42.2857C255.599 41.7535 256.132 41.2212 256.798 41.2212H256.932C257.598 41.2212 258.131 41.7535 258.131 42.2857V44.1487ZM258.131 50.8019C258.131 51.3341 257.598 51.8664 256.932 51.8664H256.798C256.132 51.8664 255.599 51.3341 255.599 50.8019V48.939C255.599 48.4067 256.132 47.8745 256.798 47.8745H256.932C257.598 47.8745 258.131 48.4067 258.131 48.939V50.8019ZM258.131 57.4551C258.131 57.9874 257.598 58.5196 256.932 58.5196H256.798C256.132 58.5196 255.599 57.9874 255.599 57.4551V55.5922C255.599 55.0599 256.132 54.5277 256.798 54.5277H256.932C257.598 54.5277 258.131 55.0599 258.131 55.5922V57.4551ZM304.665 65.439C304.665 65.9712 304.132 66.5035 303.332 66.5035H301.865C301.199 66.5035 300.531 65.9712 300.531 65.439V63.5761C300.531 63.0438 301.065 62.5116 301.865 62.5116H303.332C303.998 62.5116 304.665 63.0438 304.665 63.5761V65.439ZM304.665 73.4229C304.665 73.9551 304.132 74.4874 303.332 74.4874H301.865C301.199 74.4874 300.531 73.9551 300.531 73.4229V71.56C300.531 71.0277 301.065 70.4954 301.865 70.4954H303.332C303.998 70.4954 304.665 71.0277 304.665 71.56V73.4229ZM309.999 65.439C309.999 65.9712 309.465 66.5035 308.665 66.5035H307.198C306.532 66.5035 305.865 65.9712 305.865 65.439V63.5761C305.865 63.0438 306.398 62.5116 307.198 62.5116H308.665C309.331 62.5116 309.999 63.0438 309.999 63.5761V65.439ZM309.999 73.4229C309.999 73.9551 309.465 74.4874 308.665 74.4874H307.198C306.532 74.4874 305.865 73.9551 305.865 73.4229V71.56C305.865 71.0277 306.398 70.4954 307.198 70.4954H308.665C309.331 70.4954 309.999 71.0277 309.999 71.56V73.4229ZM304.665 80.0761C304.665 80.6083 304.132 81.1406 303.332 81.1406H301.865C301.199 81.1406 300.531 80.6083 300.531 80.0761V78.2132C300.531 77.6809 301.065 77.1487 301.865 77.1487H303.332C303.998 77.1487 304.665 77.6809 304.665 78.2132V80.0761ZM309.999 80.0761C309.999 80.6083 309.465 81.1406 308.665 81.1406H307.198C306.532 81.1406 305.865 80.6083 305.865 80.0761V78.2132C305.865 77.6809 306.398 77.1487 307.198 77.1487H308.665C309.331 77.1487 309.999 77.6809 309.999 78.2132V80.0761ZM304.665 86.7293C304.665 87.2616 304.132 87.7938 303.332 87.7938H301.865C301.199 87.7938 300.531 87.2616 300.531 86.7293V84.8664C300.531 84.3341 301.065 83.8019 301.865 83.8019H303.332C303.998 83.8019 304.665 84.3341 304.665 84.8664V86.7293ZM309.999 86.7293C309.999 87.2616 309.465 87.7938 308.665 87.7938H307.198C306.532 87.7938 305.865 87.2616 305.865 86.7293V84.8664C305.865 84.3341 306.398 83.8019 307.198 83.8019H308.665C309.331 83.8019 309.999 84.3341 309.999 84.8664V86.7293ZM304.665 94.7132C304.665 95.2454 304.132 95.7777 303.332 95.7777H301.865C301.199 95.7777 300.531 95.2454 300.531 94.7132V92.8503C300.531 92.318 301.065 91.7858 301.865 91.7858H303.332C303.998 91.7858 304.665 92.318 304.665 92.8503V94.7132ZM309.999 94.7132C309.999 95.2454 309.465 95.7777 308.665 95.7777H307.198C306.532 95.7777 305.865 95.2454 305.865 94.7132V92.8503C305.865 92.318 306.398 91.7858 307.198 91.7858H308.665C309.331 91.7858 309.999 92.318 309.999 92.8503V94.7132Z" fill="white"/>
<path d="M348.668 64.3748C348.401 64.3748 348.135 64.2418 348.002 64.1087C347.868 63.9757 347.735 63.7095 347.735 63.4434V59.5845C347.735 59.3184 347.601 59.0523 347.469 58.9192C347.335 58.7861 347.068 58.6531 346.801 58.6531H343.868C343.601 58.6531 343.335 58.52 343.202 58.3869C343.068 58.2539 342.935 57.9878 342.935 57.7216V55.7257C342.935 55.4595 342.801 55.1934 342.669 55.0603C342.535 54.9273 342.268 54.7942 342.001 54.7942H334.268C334.001 54.7942 333.735 54.9273 333.602 55.0603C333.468 55.1934 333.335 55.4595 333.335 55.7257V57.7216C333.335 58.2539 332.935 58.7861 332.401 58.7861H329.468C329.201 58.7861 328.935 58.9192 328.802 59.0523C328.668 59.1853 328.535 59.4515 328.535 59.7176V63.5765C328.535 64.1087 328.135 64.641 327.601 64.641H324.668C324.401 64.641 324.135 64.774 324.002 64.9071C323.868 65.0402 323.735 65.3063 323.735 65.5724V114.94C323.735 115.472 324.135 116.004 324.668 116.004H352.002C352.535 116.004 352.935 115.604 352.935 114.94V65.4394C352.935 65.1732 352.802 64.9071 352.668 64.774C352.535 64.641 352.269 64.5079 352.002 64.5079H348.668V64.3748Z" fill="#0971BD"/>
<path d="M153.064 77.5477C153.064 78.0799 152.397 78.4791 151.73 78.4791H150.53C149.73 78.4791 149.197 78.0799 149.197 77.5477V75.2856C149.197 74.7533 149.864 74.3541 150.53 74.3541H151.73C152.53 74.3541 153.064 74.7533 153.064 75.2856V77.5477ZM146.397 77.5477C146.397 78.0799 145.73 78.4791 145.064 78.4791H143.863C143.063 78.4791 142.53 78.0799 142.53 77.5477V75.2856C142.53 74.7533 143.197 74.3541 143.863 74.3541H145.064C145.864 74.3541 146.397 74.7533 146.397 75.2856V77.5477ZM153.064 85.5315C153.064 86.0638 152.397 86.463 151.73 86.463H150.53C149.73 86.463 149.197 86.0638 149.197 85.5315V83.2694C149.197 82.7372 149.864 82.338 150.53 82.338H151.73C152.53 82.338 153.064 82.7372 153.064 83.2694V85.5315ZM146.397 85.5315C146.397 86.0638 145.73 86.463 145.064 86.463H143.863C143.063 86.463 142.53 86.0638 142.53 85.5315V83.2694C142.53 82.7372 143.197 82.338 143.863 82.338H145.064C145.864 82.338 146.397 82.7372 146.397 83.2694V85.5315ZM153.064 94.846C153.064 95.3783 152.397 95.7775 151.73 95.7775H150.53C149.73 95.7775 149.197 95.3783 149.197 94.846V92.5839C149.197 92.0517 149.864 91.6525 150.53 91.6525H151.73C152.53 91.6525 153.064 92.0517 153.064 92.5839V94.846ZM146.397 94.846C146.397 95.3783 145.73 95.7775 145.064 95.7775H143.863C143.063 95.7775 142.53 95.3783 142.53 94.846V92.5839C142.53 92.0517 143.197 91.6525 143.863 91.6525H145.064C145.864 91.6525 146.397 92.0517 146.397 92.5839V94.846ZM153.064 104.161C153.064 104.693 152.397 105.092 151.73 105.092H150.53C149.73 105.092 149.197 104.693 149.197 104.161V101.898C149.197 101.366 149.864 100.967 150.53 100.967H151.73C152.53 100.967 153.064 101.366 153.064 101.898V104.161ZM146.397 104.161C146.397 104.693 145.73 105.092 145.064 105.092H143.863C143.063 105.092 142.53 104.693 142.53 104.161V101.898C142.53 101.366 143.197 100.967 143.863 100.967H145.064C145.864 100.967 146.397 101.366 146.397 101.898V104.161Z" fill="white"/>
<path d="M1676.4 116.669C1676.4 116.669 1676 116.269 1675.73 115.871L1663.2 101.5C1663.07 101.366 1663.07 101.366 1662.93 101.234C1662.8 101.234 1662.67 101.1 1662.54 101.1C1662.4 101.1 1662.26 101.1 1662.13 101.234C1662 101.234 1661.87 101.366 1661.87 101.5L1649.34 115.871C1648.93 116.269 1648.67 116.669 1648.67 116.669C1648.67 116.669 1648.67 117.068 1648.67 117.6V177.213C1648.67 177.745 1649.07 178.145 1649.74 178.145H1675.6C1676.13 178.145 1676.66 177.745 1676.66 177.213V117.6C1676.53 117.068 1676.54 116.669 1676.4 116.669Z" fill="#0971BD"/>
<path d="M1665.87 132.104C1665.87 132.637 1665.46 133.036 1664.8 133.036H1662.8C1662.26 133.036 1661.73 132.637 1661.73 132.104V128.778C1661.73 128.246 1662.14 127.846 1662.8 127.846H1664.8C1665.34 127.846 1665.87 128.246 1665.87 128.778V132.104ZM1657.87 132.104C1657.87 132.637 1657.46 133.036 1656.8 133.036H1654.8C1654.26 133.036 1653.73 132.637 1653.73 132.104V128.778C1653.73 128.246 1654.14 127.846 1654.8 127.846H1656.8C1657.34 127.846 1657.87 128.246 1657.87 128.778V132.104ZM1665.87 122.79C1665.87 123.322 1665.46 123.722 1664.8 123.722H1662.8C1662.26 123.722 1661.73 123.322 1661.73 122.79V119.464C1661.73 118.932 1662.14 118.532 1662.8 118.532H1664.8C1665.34 118.532 1665.87 118.932 1665.87 119.464V122.79ZM1657.87 122.79C1657.87 123.322 1657.46 123.722 1656.8 123.722H1654.8C1654.26 123.722 1653.73 123.322 1653.73 122.79V119.464C1653.73 118.932 1654.14 118.532 1654.8 118.532H1656.8C1657.34 118.532 1657.87 118.932 1657.87 119.464V122.79Z" fill="white"/>
<path d="M1708.4 116.669C1708.4 116.669 1708 116.269 1707.73 115.871L1695.2 101.5C1695.07 101.366 1695.07 101.366 1694.93 101.234C1694.8 101.234 1694.67 101.1 1694.54 101.1C1694.4 101.1 1694.26 101.1 1694.13 101.234C1694 101.234 1693.87 101.366 1693.87 101.5L1681.34 115.871C1680.93 116.269 1680.67 116.669 1680.67 116.669C1680.67 116.669 1680.67 117.068 1680.67 117.6V177.213C1680.67 177.745 1681.07 178.145 1681.74 178.145H1707.6C1708.13 178.145 1708.66 177.745 1708.66 177.213V117.6C1708.4 117.068 1708.4 116.669 1708.4 116.669Z" fill="#0971BD"/>
<path d="M1700.4 132.104C1700.4 132.637 1700 133.036 1699.34 133.036H1697.34C1696.8 133.036 1696.27 132.637 1696.27 132.104V128.778C1696.27 128.246 1696.67 127.846 1697.34 127.846H1699.34C1699.87 127.846 1700.4 128.246 1700.4 128.778V132.104ZM1692.54 132.104C1692.54 132.637 1692.13 133.036 1691.47 133.036H1689.46C1688.93 133.036 1688.4 132.637 1688.4 132.104V128.778C1688.4 128.246 1688.8 127.846 1689.46 127.846H1691.47C1692 127.846 1692.54 128.246 1692.54 128.778V132.104ZM1700.4 122.79C1700.4 123.322 1700 123.722 1699.34 123.722H1697.34C1696.8 123.722 1696.27 123.322 1696.27 122.79V119.464C1696.27 118.932 1696.67 118.532 1697.34 118.532H1699.34C1699.87 118.532 1700.4 118.932 1700.4 119.464V122.79ZM1692.54 122.79C1692.54 123.322 1692.13 123.722 1691.47 123.722H1689.46C1688.93 123.722 1688.4 123.322 1688.4 122.79V119.464C1688.4 118.932 1688.8 118.532 1689.46 118.532H1691.47C1692 118.532 1692.54 118.932 1692.54 119.464V122.79Z" fill="white"/>
<path d="M1804.8 119.198C1806.13 118.932 1807.33 118.399 1808.4 117.734C1809.2 118.133 1810 118.399 1810.8 118.532C1809.33 119.863 1807.07 121.593 1804.66 122.125C1804.66 121.193 1804.66 120.129 1804.8 119.198ZM1401.87 142.75C1402.67 142.617 1403.6 142.351 1404.4 141.951C1405.47 142.617 1406.66 143.149 1408 143.415C1408 144.214 1408 145.278 1408 146.475C1405.73 145.811 1403.34 144.08 1401.87 142.75ZM86.4 107.488C86.6667 107.488 86.8 107.354 86.9333 107.354C87.4667 107.887 88.1333 108.286 88.9333 108.419C88.9333 108.819 89.0667 109.351 89.0667 109.883C87.7333 109.484 86.4 107.488 86.4 107.488ZM91.2 108.553C91.8667 108.419 92.4 108.286 92.9333 108.02C93.3333 108.286 93.6 108.419 94 108.553C93.3333 109.085 92.1333 109.75 91.0667 110.016C91.0667 109.351 91.0667 108.951 91.2 108.553ZM106.667 101.5C107.467 101.5 108.267 101.367 108.933 100.967C108.933 101.101 108.933 101.234 108.933 101.367C109.2 102.564 110.533 103.23 112.133 102.964C112.267 102.964 112.267 102.964 112.4 102.83C112.4 103.23 112.533 103.629 112.533 104.161C109.734 103.762 106.667 101.5 106.667 101.5ZM115.867 101.899C116.533 102.165 117.2 102.165 117.867 102.032C118.534 101.899 119.066 101.367 119.467 100.835C119.6 100.967 119.733 100.967 120 101.101C119.467 101.766 117.6 103.629 115.733 104.161C115.733 103.363 115.867 102.564 115.867 101.899ZM1412.66 143.415C1414.54 143.149 1416.14 142.351 1417.33 141.286C1417.74 141.419 1418.13 141.553 1418.53 141.685C1418.4 141.819 1415.2 145.811 1412.13 146.475C1412.4 145.411 1412.53 144.346 1412.66 143.415ZM1451.2 127.98C1451.6 127.846 1451.87 127.58 1452.27 127.448C1453.2 128.645 1454.4 129.577 1455.86 129.843C1457.34 130.242 1458.93 129.975 1460.27 129.311C1460.53 130.774 1460.8 132.371 1460.94 133.967C1456.8 133.435 1452.54 129.311 1451.2 127.98ZM1467.87 131.174C1468.13 131.174 1468.27 131.306 1468.54 131.306C1471.86 131.838 1474.93 130.109 1475.34 127.58C1475.34 127.314 1475.34 126.915 1475.34 126.649C1476.8 127.182 1478.54 127.58 1480.4 127.58C1480.27 127.714 1474 133.036 1467.73 134.101C1467.73 133.036 1467.87 131.972 1467.87 131.174ZM1742.54 101.367C1744.67 101.367 1746.8 100.967 1748.54 100.303C1748.54 100.701 1748.54 100.967 1748.54 101.367C1748.94 104.294 1752.53 106.29 1756.4 105.758C1756.66 105.758 1756.94 105.625 1757.2 105.625C1757.33 106.69 1757.33 107.754 1757.33 109.085C1750 107.754 1742.67 101.5 1742.54 101.367ZM1766.13 103.629C1767.73 104.427 1769.46 104.693 1771.2 104.161C1772.94 103.762 1774.4 102.698 1775.47 101.234C1775.86 101.5 1776.26 101.633 1776.67 101.899C1775.07 103.496 1770.13 108.153 1765.33 109.085C1765.6 107.354 1765.73 105.492 1766.13 103.629ZM1794.13 117.601C1794.53 117.467 1794.93 117.335 1795.46 117.201C1796.66 118.266 1798.26 119.064 1800.14 119.33C1800.26 120.395 1800.53 121.327 1800.53 122.391C1797.47 121.859 1794.13 117.734 1794.13 117.601ZM1804.66 125.319C1806.4 124.254 1809.6 122.125 1812.54 118.932C1812.94 118.932 1813.33 118.932 1813.73 118.932C1818.8 118.532 1822.54 114.674 1822.26 110.415C1822 106.29 1818 103.23 1813.2 103.23C1813.33 102.564 1813.47 101.899 1813.47 101.234C1813.2 97.3751 1809.07 94.5806 1804.27 94.9798C1800.67 95.2459 1797.73 97.2416 1796.54 99.9029C1796.27 99.9029 1796.13 99.9029 1795.87 99.9029C1792.93 100.169 1790.8 102.165 1790.93 104.427C1790.93 104.827 1791.07 105.093 1791.2 105.359H1791.07C1786.41 105.758 1782.93 108.819 1783.2 112.278C1783.47 115.738 1787.46 118.266 1792.14 118C1792.53 118 1792.93 117.867 1793.34 117.867C1793.46 118.133 1793.74 118.399 1794 118.798C1796.94 122.657 1800.4 125.053 1800.93 125.451C1801.2 130.109 1801.07 134.766 1800.93 137.959C1789.73 137.959 1778.27 138.225 1766.54 138.492C1766 134.101 1764.8 123.854 1765.2 113.875C1766.26 113.209 1772.66 109.484 1778 103.23C1778.27 102.964 1778.4 102.698 1778.53 102.564C1778.8 102.564 1779.2 102.698 1779.46 102.698C1783.2 102.83 1786.4 100.569 1786.53 97.5077C1786.67 95.7782 1785.74 94.1814 1784.26 93.1169C1787.87 91.9193 1790.54 89.258 1790.66 85.9314C1790.93 81.4072 1786.27 77.4153 1780.54 77.1491C1780.4 77.1491 1780.4 77.1491 1780.27 77.1491C1780.4 76.6169 1780.53 76.0846 1780.66 75.5524C1780.94 71.5604 1776.93 68.1008 1771.73 67.8346C1769.2 67.7016 1766.93 68.3669 1765.2 69.5645C1763.73 67.9677 1761.6 66.9032 1759.07 66.7701C1754.53 66.504 1750.67 69.5645 1750.4 73.5564C1749.33 73.1572 1748.13 73.0241 1747.06 72.8911C1741.2 72.6249 1736.27 76.2177 1736 81.008C1735.86 82.8709 1736.53 84.6007 1737.74 86.0644C1733.47 87.1289 1730.4 89.7903 1730.13 93.1169C1730 96.9755 1733.87 100.435 1739.34 101.5C1739.87 102.032 1740.66 102.964 1741.87 104.028C1747.73 109.351 1754.27 112.811 1757.73 114.407C1758 123.722 1758 135.032 1756 139.29C1676.27 141.819 1583.33 149.536 1469.07 159.117C1467.73 154.992 1467.6 146.077 1467.87 138.625C1470.8 137.294 1476.4 134.367 1481.46 129.709C1482.53 128.778 1483.2 128.113 1483.6 127.58C1488.26 126.649 1491.6 123.722 1491.46 120.395C1491.34 117.601 1488.67 115.338 1485.07 114.407C1486 113.209 1486.54 111.613 1486.54 110.149C1486.26 106.024 1482.13 102.964 1477.07 103.23C1476 103.23 1475.06 103.496 1474.13 103.762C1473.86 100.435 1470.66 97.7738 1466.67 98.04C1464.53 98.1735 1462.67 99.1045 1461.33 100.435C1459.87 99.3706 1457.87 98.8384 1455.74 98.9719C1451.34 99.238 1448 102.165 1448.14 105.625C1448.14 106.157 1448.27 106.556 1448.4 107.088H1448.14C1443.06 107.354 1439.2 110.682 1439.47 114.674C1439.6 117.467 1441.86 119.863 1444.94 120.794C1443.6 121.725 1442.93 123.056 1442.93 124.52C1443.06 127.182 1445.73 129.177 1449.07 128.911C1449.34 128.911 1449.6 128.911 1449.87 128.778C1450 128.911 1450.13 129.177 1450.4 129.311C1454.93 134.633 1460.4 137.827 1461.33 138.359C1461.73 147.008 1460.66 155.924 1460.13 159.649C1444.53 160.98 1428.53 162.311 1412.27 163.641C1412 160.448 1411.87 154.992 1412.27 149.669C1412.94 149.27 1416.27 147.008 1419.2 143.016C1419.47 142.617 1419.6 142.351 1419.87 142.085C1420.27 142.217 1420.66 142.217 1421.07 142.217C1425.74 142.617 1429.73 140.088 1430 136.496C1430.26 133.036 1426.67 129.843 1422.13 129.577H1422C1422.14 129.311 1422.26 128.911 1422.26 128.645C1422.4 126.383 1420.27 124.254 1417.33 124.121C1417.07 124.121 1416.93 124.121 1416.67 124.121C1415.6 121.459 1412.66 119.464 1408.93 119.198C1404.13 118.798 1400 121.593 1399.74 125.451C1399.74 126.117 1399.74 126.782 1399.86 127.448C1395.2 127.314 1391.2 130.508 1390.8 134.633C1390.54 139.024 1394.27 142.75 1399.33 143.149C1399.74 143.149 1400.14 143.149 1400.53 143.149C1403.47 146.475 1406.67 148.604 1408.4 149.536C1408.4 154.593 1408.14 160.714 1407.33 164.04C1382.4 166.169 1357.47 168.165 1332.54 170.294C1051.06 192.915 904.4 191.717 558.4 134.367C364.666 102.298 212.8 106.157 116.666 115.738C116.4 114.274 115.6 110.016 115.6 105.891C116 105.625 118.4 104.028 120.4 101.5C120.533 101.367 120.533 101.367 120.667 101.234C120.8 101.234 120.934 101.234 121.067 101.234C122.534 101.234 123.733 100.303 123.733 99.1045C123.733 98.4397 123.334 97.7738 122.667 97.3751C124 96.8426 125.067 95.7782 125.067 94.4475C125.067 92.7177 123.2 91.254 120.933 91.254H120.8C120.8 90.9878 120.933 90.8548 120.933 90.5887C120.933 88.9919 119.333 87.7943 117.333 87.7943C116.4 87.7943 115.467 88.0604 114.8 88.5927C114.533 88.3266 114.133 88.0604 113.734 87.7943C113.333 87.6612 112.8 87.5282 112.4 87.5282C110.667 87.5282 109.2 88.7258 109.2 90.3225C108.8 90.1895 108.267 90.1895 107.867 90.1895C105.6 90.1895 103.733 91.6532 103.733 93.5161C103.733 94.1814 104 94.8466 104.533 95.3789C102.933 95.9111 101.734 96.9755 101.734 98.1735C101.734 99.6367 103.333 100.967 105.466 101.234C105.733 101.5 106 101.766 106.534 102.165C108.934 104.161 111.6 105.359 112.933 105.891C113.2 109.883 113.467 114.806 112.4 116.004C105.333 116.669 98.2672 117.467 91.2 118.399C90.8 117.201 90.9333 113.875 91.0667 111.214C92.4 110.548 93.7333 109.617 94.8 108.553C94.9333 108.553 95.2 108.553 95.3333 108.553C97.6 108.553 99.4667 106.956 99.4667 104.959C99.4667 103.096 97.7329 101.5 95.6 101.367C95.7333 101.101 95.7333 100.835 95.7333 100.435C95.7333 98.7058 94 97.2416 91.7333 97.2416C90.1333 97.2416 88.6667 98.04 88.1333 99.238C88 99.238 88 99.238 87.8667 99.238C86.5333 99.238 85.4667 100.036 85.4667 101.101C85.4667 101.234 85.4667 101.367 85.6 101.5C83.4667 101.5 81.7333 102.83 81.7333 104.427C81.7333 106.024 83.4667 107.354 85.6 107.354C85.7333 107.354 86 107.354 86.1333 107.354C86.9333 108.819 88 110.016 89.3333 111.08C89.3333 114.674 88.6667 118.399 88.6667 118.798C30.9333 125.984 0 134.367 0 134.367V239.488H1920V143.548C1884.4 139.556 1846.66 137.827 1805.47 137.827C1804.94 134.5 1804.66 129.577 1804.66 125.319Z" fill="#0971BD"/>
<path d="M993.299 171.694C995.52 171.721 997.411 173.659 997.382 175.893C997.353 178.127 995.423 180.019 993.202 179.992C991.079 179.967 989.091 178.028 989.12 175.793C989.246 173.666 991.176 171.668 993.299 171.694Z" fill="white"/>
<path d="M1069.16 172.486C1071.46 172.514 1073.4 174.512 1073.37 176.815C1073.34 179.118 1071.35 181.068 1069.05 181.04C1066.76 181.012 1064.93 179.016 1064.96 176.823C1064.99 174.3 1066.75 172.457 1069.16 172.486Z" fill="white"/>
<path d="M1069.23 169.773C1073.08 169.819 1076.09 172.975 1076.04 176.847C1076 180.612 1072.8 183.799 1069 183.753C1065.1 183.652 1062.13 180.605 1062.12 176.678C1062.17 172.86 1065.43 169.726 1069.23 169.773ZM1069.15 180.421C1071.19 180.499 1072.86 178.798 1072.83 176.754C1072.8 174.764 1071.21 173.078 1069.24 173.054C1067.26 173.029 1065.42 174.728 1065.49 176.719C1065.52 178.871 1066.84 180.339 1069.15 180.421Z" fill="#0971BD"/>
<path d="M993.493 168.854C997.459 168.956 1000.36 172.164 1000.26 175.928C1000.21 179.8 997.13 182.774 993.319 182.835C989.518 182.843 986.395 179.579 986.444 175.76C986.434 171.888 989.634 168.754 993.493 168.854ZM993.251 179.554C995.181 179.577 996.916 177.878 996.945 175.888C997.023 173.898 995.278 172.103 993.29 172.079C991.311 172.055 989.576 173.755 989.556 175.745C989.576 177.789 991.273 179.531 993.251 179.554Z" fill="#0971BD"/>
<path d="M957.855 148.415C957.976 147.233 958.737 146.328 959.762 145.695C961.328 144.692 963.098 144.498 964.92 144.466C965.776 144.477 966.472 144.593 967.129 143.418C968.225 141.334 970.279 139.961 972.325 138.91C976.417 136.862 980.984 136.379 985.484 136.218C989.072 136.1 992.601 136.251 996.199 136.295C1003.21 136.38 1010.23 136.465 1017.19 136.549C1018.85 136.57 1020.34 137.018 1021.18 138.695C1021.28 138.912 1021.65 139.131 1021.92 139.134C1046.02 139.426 1070.13 139.719 1094.23 140.011C1095.03 140.021 1095.84 139.815 1096.64 139.665C1097.55 139.46 1098.47 139.149 1099.43 138.999C1101.8 138.704 1104.46 139.974 1105.4 142.029C1105.5 142.245 1105.5 142.46 1105.49 142.676C1105.49 142.891 1105.44 143.105 1105.48 143.321C1105.9 144.348 1106.59 145.378 1106.73 146.455C1107.28 150.604 1107.81 154.752 1108.03 158.895C1108.24 163.685 1108.13 168.524 1108.12 173.364C1108.11 174.17 1107.89 175.029 1107.56 175.777C1107.34 176.259 1106.74 176.736 1106.26 176.837C1103.41 177.448 1100.52 177.843 1097.67 178.4C1095.15 178.907 1092.63 179.145 1090.06 179.169C1085.66 179.169 1081.27 178.846 1076.93 179.493C1076.44 179.541 1076.23 179.431 1076.3 178.841C1076.36 177.335 1076.49 175.831 1075.92 174.317C1074.93 171.616 1073.08 169.927 1070.29 169.516C1067.31 169.05 1064.88 170.15 1063.14 172.657C1061.93 174.364 1061.75 176.297 1061.78 178.288C1061.82 179.364 1061.77 179.417 1060.64 179.403C1059.46 179.389 1058.34 179.376 1057.16 179.361C1042.43 179.182 1027.7 178.95 1013.03 178.826C1009.07 178.778 1005.05 178.299 1001.09 179.165C1000.65 179.267 1000.54 179.051 1000.55 178.621C1000.62 177.761 1000.52 176.845 1000.58 175.986C1000.84 171.955 997.304 168.309 993.173 168.474C990.07 168.598 987.152 170.606 986.415 173.663C986.027 175.217 986.056 176.886 985.93 178.497C985.93 178.928 985.813 179.087 985.338 179.028C984.213 178.853 983.04 178.677 981.915 178.664C976.776 178.547 971.627 178.485 966.489 178.369C965.9 178.362 965.311 178.301 964.723 178.186C962.96 177.896 961.741 176.805 961.652 175.299C961.564 173.684 961.37 172.068 961.443 170.455C961.591 167.069 961.793 163.737 962.101 160.352C962.287 158.364 962.686 156.379 963.03 154.448C963.145 153.911 963.311 153.429 963.425 152.893C963.538 152.356 963.705 151.874 963.819 151.337C963.93 150.963 964.095 150.588 964.208 150.213C964.262 150.106 964.317 149.946 964.319 149.837C964.373 149.731 964.375 149.569 964.431 149.463C964.541 149.142 964.705 148.874 964.816 148.553C964.872 148.446 964.927 148.285 964.981 148.179C965.092 147.965 965.148 147.75 965.258 147.536C965.311 147.537 965.31 147.591 965.363 147.591C965.254 147.805 965.198 148.02 965.088 148.234C965.034 148.34 964.978 148.501 964.923 148.608C964.812 148.93 964.648 149.197 964.537 149.518C964.482 149.624 964.48 149.786 964.426 149.893C964.37 150 964.315 150.161 964.26 150.267C964.148 150.643 963.983 151.017 963.871 151.446C963.757 151.982 963.591 152.465 963.476 153.001C963.363 153.537 963.196 154.019 963.083 154.556C962.736 156.703 962.442 158.851 962.094 160.997C961.977 161.803 962.081 162.019 962.833 161.921C962.993 161.923 963.211 161.656 963.266 161.496C963.563 159.134 963.753 156.769 964.155 154.461C964.559 152.153 965.229 149.902 965.792 147.65C965.848 147.382 965.851 147.167 965.908 146.899C965.745 147.058 965.582 147.272 965.473 147.432C965.419 147.485 965.363 147.591 965.363 147.645C965.31 147.645 965.31 147.591 965.257 147.59C965.045 147.373 966.069 146.847 965.159 146.836C963.82 146.82 962.533 146.912 961.192 147.11C960.601 147.211 960.113 147.689 959.627 148.06C959.087 148.429 959.78 148.653 959.724 148.922C959.546 150.264 959.423 151.607 959.193 152.895C959.137 153.109 958.704 153.427 958.49 153.425C958.169 153.367 957.638 153.038 957.641 152.823C957.712 151.371 957.677 149.864 957.855 148.415ZM1105.04 171.444C1105.03 172.143 1105.45 172.525 1106.2 172.534C1107.97 172.555 1107.97 172.555 1108 170.78C1108 170.458 1108 170.189 1108 169.867C1108 169.867 1108 169.867 1107.95 169.866C1107.96 169.113 1107.97 168.414 1107.98 167.661C1107.99 167.231 1107.82 167.014 1107.35 167.008C1106.7 167.054 1106.11 166.939 1105.46 167.039C1105.25 167.036 1104.98 167.355 1104.98 167.517C1104.96 168.861 1105 170.153 1105.04 171.444ZM1081.23 155.881C1084.55 155.922 1087.87 155.961 1091.19 156.002C1094.3 156.04 1097.45 156.077 1100.57 156.115C1101.48 156.127 1102.12 155.92 1102.66 155.173C1104.46 152.936 1105.62 150.476 1104.96 147.456C1104.55 145.676 1103.66 144.105 1102.44 142.8C1102.18 142.528 1101.64 142.36 1101.22 142.355C1094.57 142.22 1087.99 142.194 1081.35 142.061C1080.81 142.054 1080.7 142.268 1080.7 142.752C1080.64 146.893 1080.59 151.033 1080.54 155.174C1080.53 155.712 1080.7 155.874 1081.23 155.881ZM1058.26 154.904C1058.26 155.441 1058.41 155.604 1058.95 155.611C1062.17 155.65 1065.38 155.688 1068.59 155.728C1071.75 155.766 1074.91 155.804 1078.13 155.843C1078.71 155.85 1078.88 155.691 1078.88 155.1C1078.93 151.012 1078.98 146.872 1079.03 142.785C1079.04 142.247 1078.88 142.031 1078.29 142.023C1071.92 141.945 1065.54 141.869 1059.23 141.792C1058.64 141.785 1058.47 141.998 1058.46 142.536C1058.37 146.676 1058.32 150.763 1058.26 154.904ZM1036.09 154.527C1036.08 155.118 1036.25 155.282 1036.83 155.289C1040.05 155.274 1043.21 155.366 1046.42 155.405C1049.58 155.444 1052.74 155.481 1055.9 155.52C1056.48 155.527 1056.6 155.367 1056.6 154.829C1056.65 150.742 1056.71 146.602 1056.76 142.514C1056.77 141.87 1056.55 141.76 1055.96 141.752C1049.64 141.675 1043.27 141.598 1036.95 141.522C1036.35 141.515 1036.2 141.674 1036.19 142.266C1036.25 146.354 1036.2 150.44 1036.09 154.527ZM1014.6 155.073C1017.76 155.112 1020.93 155.149 1024.09 155.188C1027.3 155.227 1030.46 155.265 1033.67 155.304C1034.15 155.31 1034.42 155.205 1034.43 154.668C1034.48 150.527 1034.53 146.441 1034.58 142.3C1034.59 141.708 1034.38 141.544 1033.84 141.538C1027.46 141.461 1021.15 141.384 1014.78 141.307C1014.24 141.3 1014.07 141.513 1014.07 141.997C1014.02 146.138 1013.96 150.279 1013.92 154.42C1013.92 154.904 1014.13 155.067 1014.6 155.073ZM989.401 148.744C989.275 150.624 988.878 152.394 988.053 154.105C987.83 154.533 987.83 154.749 988.412 154.755C996.131 154.849 1003.79 154.942 1011.5 155.035C1011.99 155.041 1012.2 154.936 1012.21 154.398C1012.26 150.257 1012.31 146.117 1012.35 141.976C1012.36 141.438 1012.15 141.275 1011.67 141.269C1007.82 141.223 1003.96 141.175 1000.1 141.129C996.296 141.082 992.495 141.037 988.742 140.991C987.937 140.982 987.888 141.25 988.141 141.844C988.975 144.006 989.537 146.325 989.401 148.744ZM978.065 151.456C978.027 154.79 977.988 158.125 977.939 161.459C977.939 161.62 977.998 161.782 978.046 161.944C978.153 161.837 978.366 161.787 978.424 161.68C980.005 159.601 981.634 157.577 983.108 155.444C984.902 152.884 986.114 150.048 985.726 146.817C985.484 144.77 984.756 142.933 983.651 141.252C983.544 141.036 983.176 140.924 982.962 140.921C981.566 140.85 980.121 140.887 978.735 140.869C978.25 140.864 978.192 141.078 978.182 141.508C978.143 144.789 978.104 148.123 978.065 151.456ZM971.695 164.179C972.984 164.196 974.322 164.158 975.602 164.227C976.359 164.236 976.63 163.97 976.64 163.217C976.688 159.023 976.737 154.882 976.785 150.688C976.824 147.676 976.863 144.666 976.902 141.654C976.911 140.954 976.64 140.683 975.942 140.728C974.604 140.766 973.266 140.696 971.985 140.68C971.394 140.673 971.122 140.885 971.113 141.53C971.074 145.186 971.026 148.789 970.987 152.446C970.938 156.049 970.899 159.652 970.851 163.255C970.793 164.007 971.103 164.173 971.695 164.179ZM961.903 172.343C961.901 172.505 961.845 172.612 961.843 172.773C961.841 172.934 961.894 173.043 961.892 173.204C961.894 173.043 961.949 172.882 961.951 172.721C961.9 172.559 961.901 172.451 961.903 172.343Z" fill="#0971BD"/>
<path d="M1069.17 174.667C1070.29 174.68 1071.24 175.66 1071.22 176.789C1071.21 177.918 1070.24 178.874 1069.11 178.861C1067.99 178.847 1067.09 177.868 1067.1 176.793C1067.12 175.556 1067.99 174.652 1069.17 174.667Z" fill="#0971BD"/>
<path d="M993.27 173.745C994.395 173.759 995.355 174.739 995.336 175.869C995.326 176.998 994.347 177.954 993.222 177.941C992.155 177.927 991.147 176.947 991.156 175.817C991.224 174.743 992.204 173.733 993.27 173.745Z" fill="#0971BD"/>
</mask>
<g mask="url(#mask0_0_238)">
<rect y="0.104492" width="1920" height="239" fill="#006A66"/>
</g>
</svg>
